$MeshFormat
4.1 0 8
$EndMeshFormat
$PhysicalNames
3
3 1 "Domain_1"
3 2 "Domain_2"
3 3 "Domain_3"
$EndPhysicalNames
$Entities
13 21 13 3
1 1 5 10 0 
2 3 5 20 0 
3 0 0 0 0 
4 -4.440892098501e-16 -4.898587196589e-16 2 0 
5 8.738726566723565e-31 2 -3.935572570959445e-15 0 
6 0 0 10 0 
7 0 10 10 0 
8 0 10 0 0 
9 10 0 0 0 
10 10 0 10 0 
11 10 10 0 0 
12 10 10 10 0 
13 -10 -4.898587196589e-16 2 0 
1 0.9999998999999997 0.9999998999999997 9.999999900000001 9.000000099999999 9.000000099999999 10.0000001 0 2 1 -1 
2 0.9999999000019613 4.999999899999999 9.999999899999608 3.0000001 5.0000001 20.0000001 0 2 2 -1 
3 2.9999999 2.9999999 19.9999999 7.0000001 7.0000001 20.0000001 0 2 2 -2 
4 -1.000000004070818e-07 -1.000000004070818e-07 -1.000000003914536e-07 1.000000004070818e-07 1.000000004070818e-07 2.0000001 0 2 3 -4 
5 -1.000000008843792e-07 -1.000000003914536e-07 -1.000000042772342e-07 1.0000000044029e-07 2.0000001 2.0000001 0 2 4 -5 
6 -1e-07 -9.999999994736442e-08 -1e-07 1e-07 2.0000001 1e-07 0 2 3 -5 
7 -1e-07 -1e-07 1.9999999 1e-07 1e-07 10.0000001 0 2 4 -6 
8 -1e-07 -1.000000002804313e-07 9.999999900000001 1e-07 10.0000001 10.0000001 0 2 6 -7 
9 -1e-07 9.999999900000001 -1.000000002804313e-07 1e-07 10.0000001 10.0000001 0 2 8 -7 
10 -1e-07 1.9999999 -1e-07 1e-07 10.0000001 1e-07 0 2 5 -8 
11 9.999999900000001 -1e-07 -1.000000002804313e-07 10.0000001 1e-07 10.0000001 0 2 9 -10 
12 9.999999900000001 -1.000000002804313e-07 -1e-07 10.0000001 10.0000001 1e-07 0 2 9 -11 
13 9.999999900000001 9.999999900000001 -1.000000002804313e-07 10.0000001 10.0000001 10.0000001 0 2 11 -12 
14 9.999999900000001 -1.000000002804313e-07 9.999999900000001 10.0000001 10.0000001 10.0000001 0 2 10 -12 
15 -1.000000002804313e-07 -1e-07 -1e-07 10.0000001 1e-07 1e-07 0 2 3 -9 
16 -1.000000002804313e-07 -1e-07 9.999999900000001 10.0000001 1e-07 10.0000001 0 2 6 -10 
17 -1.000000002804313e-07 9.999999900000001 -1e-07 10.0000001 10.0000001 1e-07 0 2 8 -11 
18 -1.000000002804313e-07 9.999999900000001 9.999999900000001 10.0000001 10.0000001 10.0000001 0 2 7 -12 
19 -10.0000001 -1.000000004898587e-07 1.999999899999998 9.99999993922529e-08 9.999999951014128e-08 2.0000001 0 2 4 -13 
20 -10.0000001 -2.0000001 -2.000000100000002 -9.999999900000001 2.0000001 2.000000099999998 0 2 13 -13 
21 -1.000000004440892e-07 -2.0000001 -2.0000001 1.000000004440892e-07 2.0000001 2.0000001 0 2 5 -4 
1 0.9999998999988078 0.9999998999988069 9.999999900000239 9.000000100001193 9.000000100001193 20.0000001 0 4 -1 -2 3 2 
2 0.9999998999999997 0.9999998999999997 9.999999900000001 9.000000099999999 9.000000099999999 10.0000001 0 1 1 
3 2.9999999 2.9999999 19.9999999 7.0000001 7.0000001 20.0000001 0 1 3 
4 -1.000000008843792e-07 -1.000000003914536e-07 -1.000000042772342e-07 1.0000000044029e-07 2.0000001 2.0000001 0 3 -4 6 -5 
5 -1.000000008843792e-07 -1.000000002804313e-07 -1.000000047213234e-07 1.0000000044029e-07 10.0000001 10.0000001 0 5 -7 5 10 9 -8 
6 9.999999900000001 -1.000000002804313e-07 -1.000000002804313e-07 10.0000001 10.0000001 10.0000001 0 4 -11 12 13 -14 
7 -1.000000002804313e-07 -1.000000004070818e-07 -1.000000002804313e-07 10.0000001 1.000000004070818e-07 10.0000001 0 5 -15 4 7 16 -11 
8 -1.000000002804313e-07 9.999999900000001 -1.000000002804313e-07 10.0000001 10.0000001 10.0000001 0 4 -17 9 18 -13 
9 -1.000000002804313e-07 -1.000000002804313e-07 -1e-07 10.0000001 10.0000001 1e-07 0 5 -6 15 12 -17 -10 
10 -1.000000002804313e-07 -1.000000002804313e-07 9.999999900000001 10.0000001 10.0000001 10.0000001 0 5 -8 16 14 -18 1 
11 -10.0000001 -2.0000001 -2.000000100000002 1.000000002804313e-07 2.0000001 2.0000001 0 5 -19 5 21 19 -20 
12 -1.00000000851171e-07 -2.0000001 -2.0000001 1.00000000851171e-07 2.0000001 2.0000001 0 3 21 -4 6 
13 -10.0000001 -2.0000001 -2.000000100000002 -9.999999900000001 2.0000001 2.000000099999998 0 1 20 
1 0.9999998999988078 0.9999998999988069 9.999999900000001 9.000000100001193 9.000000100001193 20.0000001 1 1 3 1 2 -3 
2 -1.000000011686097e-07 -1.000000002804313e-07 -1.000000047213234e-07 10.0000001 10.0000001 10.0000001 1 2 8 -4 -5 6 -7 8 -9 10 -2 
3 -10.0000001 -2.0000001 -2.000000100000002 1.000000011686097e-07 2.0000001 2.0000001 1 3 4 11 4 -12 13 
$EndEntities
$Nodes
45 229 1 229
0 1 0 1
1
1 5 10
0 2 0 1
2
3 5 20
0 3 0 1
3
0 0 0
0 4 0 1
4
-4.440892098501e-16 -4.898587196589e-16 2
0 5 0 1
5
8.738726566723565e-31 2 -3.935572570959445e-15
0 6 0 1
6
0 0 10
0 7 0 1
7
0 10 10
0 8 0 1
8
0 10 0
0 9 0 1
9
10 0 0
0 10 0 1
10
10 0 10
0 11 0 1
11
10 10 0
0 12 0 1
12
10 10 10
0 13 0 1
13
-10 -4.898587196589e-16 2
1 1 0 7
14
15
16
17
18
19
20
2.171572875253805 7.828427124746185 10
4.999999999999988 9 10
7.828427124746179 7.828427124746201 10
9 5.000000000000017 10
7.828427124746203 2.171572875253823 10
5.000000000000015 1 10
2.171572875253815 2.171572875253804 10
1 2 0 3
21
22
23
2.500000000000489 5 17.4999999999999
2.000000000000978 5 14.99999999999979
1.500000000001469 5 12.49999999999969
1 3 0 6
24
25
26
27
28
29
3.75302039628253 6.563662964936057 20
5.445041867912622 6.949855824363649 20
6.801937735804835 5.867767478235123 20
6.801937735804843 4.132232521764892 20
5.445041867912638 3.050144175636355 20
3.753020396282538 3.436337035063937 20
1 5 0 1
30
-3.140184917367108e-16 1.414213562373095 1.414213562373095
1 7 0 2
31
32
0 0 4.666666666666663
0 0 7.333333333333323
1 8 0 3
33
34
35
0 2.5 10
0 5 10
0 7.5 10
1 9 0 3
36
37
38
0 10 2.5
0 10 5
0 10 7.5
1 10 0 2
39
40
0 4.666666666666663 0
0 7.333333333333323 0
1 11 0 3
41
42
43
10 0 2.5
10 0 5
10 0 7.5
1 12 0 3
44
45
46
10 2.5 0
10 5 0
10 7.5 0
1 13 0 3
47
48
49
10 10 2.5
10 10 5
10 10 7.5
1 14 0 3
50
51
52
10 2.5 10
10 5 10
10 7.5 10
1 15 0 3
53
54
55
2.5 0 0
5 0 0
7.5 0 0
1 16 0 3
56
57
58
2.5 0 10
5 0 10
7.5 0 10
1 17 0 3
59
60
61
2.5 10 0
5 10 0
7.5 10 0
1 18 0 3
62
63
64
2.5 10 10
5 10 10
7.5 10 10
1 19 0 3
65
66
67
-2.5 -4.898587196589e-16 2
-5.000000000000001 -4.898587196589e-16 1.999999999999999
-7.500000000000001 -4.898587196589e-16 1.999999999999998
1 20 0 6
68
69
70
71
72
73
-10 1.563662964936057 1.246979603717468
-10 1.949855824363649 -0.445041867912624
-10 0.8677674782351237 -1.801937735804837
-10 -0.867767478235108 -1.801937735804844
-10 -1.949855824363645 -0.4450418679126396
-10 -1.563662964936063 1.246979603717461
1 21 0 4
74
75
76
77
3.592757177871931e-16 1.175570504584941 -1.618033988749898
4.22353936844208e-16 -0.6180339887499005 -1.902113032590305
1.372311128621909e-16 -1.902113032590309 -0.6180339887498885
-2.610290882520479e-16 -1.618033988749893 1.175570504584949
2 1 0 31
78
79
80
81
82
83
84
85
86
87
88
89
90
91
92
93
94
95
96
97
98
99
100
101
102
103
104
105
106
107
108
6.418335080126052 6.795977319439147 18.55752547364079
6.424472774493734 3.213767638704526 18.57661528506954
8.207369967003059 6.328536139880828 12.64183882132362
6.448153634672937 1.82651826416551 12.55857282410275
3.103839825333638 2.947305675903832 16.02772620851867
3.165540696348388 7.100804077302064 16.0549124169475
4.479940383305669 7.215957166420099 18.61917383455394
4.469854925179315 2.788240675549527 18.62795850600093
3.806891489712349 8.299561693597974 12.45675679415762
5.138273673522312 7.625415847883502 16.85472710143952
7.28508316116758 6.318207238325913 16.80978072905499
6.728862824282229 7.434869395275797 15.06886170009784
5.275194278358928 2.385988450694735 16.85771303126739
7.284676942986254 5.00000000000001 18.57661528506961
2.931057272321141 2.301305826431496 12.99744559421885
4.330045901893662 1.967085675588716 14.46986172567645
6.965541418427036 2.739237067152133 15.02134676774364
7.368168572697946 3.843483168940172 16.82260119633164
7.980019794140315 5.027237637932358 15.09927865640006
8.25635657630991 3.77043835897736 12.5962073234419
6.411258181790441 8.181571088561659 12.59738220321761
2.508821171095431 7.017258166780375 13.97244367579724
3.084494574109199 6.17450447196804 18.7654308145691
3.12953790306275 3.752201207815167 18.7576356113848
4.656805828225658 8.04476994832722 14.67974683811298
1.945296183049211 6.912481552163012 11.98001033806456
4.416072504867588 1.474704089048356 12.13335329494016
2.396442796820659 3.296636246550462 14.44368441212023
1.778291788812676 3.24273621153479 11.65103557399264
3.397669513001307 6.890713452726908 17.60820800904233
3.374000953596616 3.147065197760854 17.67397034701328
2 2 0 4
109
110
111
112
5.445305786672241 6.075063269587356 10
4.398101808615037 3.546889223190573 10
3.195680509605481 5.728158077041055 10
6.79073206113651 4.239038966966477 10
2 3 0 1
113
5.000000000000001 5.000000000000002 20
2 5 0 15
114
115
116
117
118
119
120
121
122
123
124
125
126
127
128
0 2.571479196933248 6.061376630304518
0 5.999999999999993 2.309401076758497
0 6.417826087213109 7.600193200346875
0 3.690315277264737 2.405530253665048
0 4.666118129761443 4.252990182384492
0 7.300697388276383 4.515650649338538
0 1.362473711274849 2.837890767248463
0 3.869147296735861 8.016113998373426
0 2.458077263046856 4.044890900053836
0 8.375722877688826 6.471228415117215
0 4.965053619784008 6.08926493214957
0 8.022268757099686 1.937357770204776
0 2.626733843515868 1.33152691665732
0 8.182755056135097 8.182755056135097
0 1.78883326201861 8.247218050166037
2 6 0 15
129
130
131
132
133
134
135
136
137
138
139
140
141
142
143
10 2.165063509461096 3.75
10 7.953881872687138 3.640358958115698
10 6.239406576797808 7.883069887360419
10 3.759949993707402 7.885993441589132
10 4.999999999999998 5.669872981077808
10 2.125856753681781 6.329289900624124
10 4.796557459309014 2.917273223602596
10 7.634240860678117 6.009952094312408
10 3.103138265074932 1.768489190752347
10 6.25 1.552901902868391
10 1.830127018922193 8.169872981077807
10 8.169872981077807 8.169872981077807
10 8.219022194693537 1.749592066742908
10 6.167782409180711 4.115958503954638
10 1.459265064213862 1.484804596480834
2 7 0 15
144
145
146
147
148
149
150
151
152
153
154
155
156
157
158
2.308146683704327 0 5.957093724292217
8.022970844157479 0 3.592173546155781
6.244207341961609 0 7.886120274327771
3.820195085467177 0 2.168690262807259
3.830768281804415 0 7.881568079780667
4.978830962414486 0 6.00509396422027
7.802150379282772 0 6.089017294984147
6.40797822657331 0 1.932036208235116
1.854435004438947 0 3.366401824458178
3.779287636952468 0 4.299701239460679
8.169872981077807 0 8.169872981077807
8.169872981077807 0 1.830127018922193
1.727782993101749 0 8.23439902748124
5.934830448737402 0 4.001226421525465
1.690362019580621 0 1.557184327624609
2 8 0 15
159
160
161
162
163
164
165
166
167
168
169
170
171
172
173
2.257047743274071 10 3.829082621114845
7.890759238962055 10 3.846687836487031
3.59190173416797 10 8.023234408041672
7.886460481895354 10 6.24527925880018
5.952411535454151 10 5.030682637775182
6.057631425839536 10 2.30459713512556
1.946445340993804 10 6.409766973712813
6.069708608369244 10 7.764715647316084
3.68793662599956 10 1.815045068964227
4.319339332990198 10 3.773688470717482
8.169872981077807 10 1.830127018922193
8.169872981077807 10 8.169872981077807
1.830127018922193 10 8.169872981077807
1.815079327258486 10 1.815079327258486
3.999595549598592 10 5.936411832042555
2 9 0 15
174
175
176
177
178
179
180
181
182
183
184
185
186
187
188
2.308146683704328 5.957093724292216 0
8.022970844157481 3.592173546155781 0
6.24420734196161 7.886120274327771 0
3.820195085467176 2.168690262807258 0
3.830768281804417 7.881568079780666 0
4.978830962414486 6.005093964220269 0
7.802150379282772 6.089017294984147 0
6.40797822657331 1.932036208235116 0
1.854435004438947 3.366401824458178 0
3.779287636952468 4.299701239460677 0
8.169872981077807 8.169872981077807 0
8.169872981077807 1.830127018922193 0
1.727782993101749 8.23439902748124 0
5.934830448737403 4.001226421525462 0
1.69036201958062 1.557184327624609 0
2 11 0 28
189
190
191
192
193
194
195
196
197
198
199
200
201
202
203
204
205
206
207
208
209
210
211
212
213
214
215
216
-8.65628600393315 0.0548595512123858 -1.999247465833278
-1.559165088543286 -1.44962122127025 -1.377896336755037
-3.866701167564825 1.816235888589097 0.8374289205663797
-1.290253617985654 1.740149879328613 -0.9858389307958048
-6.250000000000001 -1.820496905893707 0.8281250000038863
-8.480220602988696 1.978597330547337 0.2918091903126924
-6.444409059324685 1.721850225076523 1.017463415757011
-5.064817328044294 1.723728156398205 -1.014278681053707
-8.513990895355779 -1.98621552427164 0.2344096652067315
-3.853262075253665 -1.790347587198855 0.8914345276077412
-7.120899969760331 -1.835935964943559 -0.7933089767718287
-6.986265533693065 1.781311974237823 -0.9093556237451621
-5.95177460224458 0.4169967008112047 -1.956045436975475
-4.101754202628595 0.1421788769331434 -1.994939890561626
-5.059816434689203 -1.670350545945776 -1.099967751190303
-3.076540130288461 -1.132999684743313 -1.648123695106515
-8.597239782408421 1.493209206533948 -1.330536082006896
-1.829632461507808 1.945673131766608 0.4629860303740494
-3.079732938701915 1.700010523567898 -1.053548394597231
-1.521316767631104 -1.97550967487015 0.3120280828618405
-1.810247392170402 0.2907768059210593 -1.978749314374701
-8.596548802172027 -1.44371832849633 -1.384079978889865
-8.634764670041418 1.140280992766051 1.643094415283693
-8.562852875166369 -1.273722031583944 1.541957258246046
-1.455111710265223 -1.268363613091511 1.546367920316975
-7.433071449815358 0.7304328270324032 -1.861845290348652
-7.193524729210767 -0.6640844460752318 -1.886529047876273
-2.93159169815672 -1.963870897141412 -0.3784324237707271
2 13 0 1
217
-10 1.808077497246683e-15 -2.347328680635795e-15
3 1 0 2
218
219
5.142596764879826 5.017077314765704 13.241283337906
5.030833338016786 5.006084977223947 17.50422908399243
3 2 0 9
220
221
222
223
224
225
226
227
228
4.906373733736564 4.781493879428188 4.781493879428187
3.267518542873601 7.087682916471983 3.031667650917547
6.928571440718481 6.935863398296981 6.945795879443224
6.890989351934767 6.874273662560419 3.109796886436555
7.138238989644543 2.837240128541877 2.837240128541877
3.128981080376621 6.985889613368395 6.849559524908313
6.869266768271538 3.090645875625026 6.854139440097859
3.127033118958692 3.021597917655069 6.873777732175261
2.972307621767943 2.933672942826206 3.119585139161313
3 3 0 1
229
-8.017374033380083 -0.02501573632762577 -0.1200820546086554
$EndNodes
$Elements
3 593 1 593
3 1 4 120
1 83 218 87 219 
2 82 90 218 219 
3 82 218 22 219 
4 22 218 83 219 
5 94 218 90 219 
6 89 87 218 219 
7 102 87 83 218 
8 94 95 96 219 
9 88 89 96 219 
10 90 93 82 218 
11 94 96 218 219 
12 89 218 96 219 
13 89 87 102 218 
14 90 94 93 218 
15 22 21 82 219 
16 22 83 21 219 
17 95 94 90 219 
18 96 95 88 219 
19 113 101 100 219 
20 89 88 87 219 
21 105 22 82 218 
22 22 99 83 218 
23 100 84 113 219 
24 85 101 113 219 
25 92 110 106 218 
26 83 99 102 218 
27 113 101 2 100 
28 24 113 100 84 
29 85 113 79 219 
30 105 82 93 218 
31 85 28 79 113 
32 23 99 22 218 
33 110 111 106 218 
34 113 84 78 219 
35 106 111 23 218 
36 25 78 113 84 
37 85 101 29 113 
38 92 106 23 218 
39 103 99 23 218 
40 105 23 22 218 
41 110 104 81 218 
42 86 109 98 218 
43 79 113 91 219 
44 91 79 27 113 
45 26 78 91 113 
46 78 91 113 219 
47 83 107 21 219 
48 109 80 98 218 
49 103 86 99 218 
50 110 92 104 218 
51 23 105 92 218 
52 108 82 21 219 
53 112 110 81 218 
54 83 87 107 219 
55 108 90 82 219 
56 111 109 86 218 
57 21 100 101 219 
58 103 111 86 218 
59 103 23 111 218 
60 86 102 99 218 
61 107 84 100 219 
62 109 112 80 218 
63 113 24 25 84 
64 28 85 29 113 
65 86 98 102 218 
66 93 94 81 218 
67 94 96 97 218 
68 96 89 80 218 
69 91 27 26 113 
70 79 28 27 113 
71 78 26 25 113 
72 81 97 112 218 
73 85 108 101 219 
74 97 80 112 218 
75 93 81 104 218 
76 81 94 97 218 
77 111 110 109 218 
78 96 80 97 218 
79 78 84 87 219 
80 98 89 102 218 
81 85 79 90 219 
82 107 87 84 219 
83 98 80 89 218 
84 91 88 95 219 
85 78 87 88 219 
86 93 104 92 218 
87 112 109 110 218 
88 79 95 90 219 
89 108 85 90 219 
90 100 21 107 219 
91 93 92 105 218 
92 79 91 95 219 
93 91 78 88 219 
94 21 101 108 219 
95 16 98 109 80 
96 113 2 24 100 
97 101 2 29 113 
98 15 98 86 109 
99 109 112 16 80 
100 19 110 81 112 
101 112 17 16 80 
102 111 15 86 109 
103 110 104 19 81 
104 81 18 19 112 
105 14 15 86 111 
106 21 2 101 100 
107 112 97 17 80 
108 111 86 14 103 
109 110 20 106 111 
110 97 18 81 112 
111 15 16 98 109 
112 20 1 106 111 
113 105 106 23 92 
114 1 23 106 111 
115 97 17 18 112 
116 19 20 104 110 
117 1 23 111 103 
118 111 14 1 103 
119 20 92 110 106 
120 20 110 92 104 
3 2 4 376
121 168 163 173 221 
122 163 222 220 223 
123 220 221 163 223 
124 149 157 153 220 
125 179 183 187 220 
126 153 220 157 228 
127 187 220 183 228 
128 183 220 179 221 
129 220 222 109 226 
130 163 220 222 225 
131 163 221 220 225 
132 163 221 168 223 
133 109 222 220 225 
134 220 221 183 228 
135 142 223 135 224 
136 109 226 110 227 
137 109 220 226 227 
138 149 220 153 227 
139 163 173 221 225 
140 160 136 162 222 
141 109 225 220 227 
142 153 227 220 228 
143 179 220 187 223 
144 174 183 221 228 
145 220 221 118 225 
146 174 221 115 228 
147 124 220 118 225 
148 174 115 117 228 
149 136 222 160 223 
150 118 221 220 228 
151 160 162 163 222 
152 131 132 17 222 
153 133 223 142 224 
154 118 220 124 227 
155 133 220 223 224 
156 178 176 164 221 
157 220 222 133 223 
158 149 157 220 226 
159 187 223 220 224 
160 117 182 174 228 
161 147 151 181 224 
162 136 160 130 223 
163 187 224 220 228 
164 179 221 220 223 
165 183 174 182 228 
166 133 142 135 224 
167 220 227 118 228 
168 220 224 157 228 
169 115 221 118 228 
170 164 221 176 223 
171 163 160 222 223 
172 163 222 173 225 
173 177 187 183 228 
174 164 167 178 221 
175 181 177 147 224 
176 157 224 220 226 
177 133 220 224 226 
178 133 222 220 226 
179 177 147 224 228 
180 149 148 146 226 
181 220 225 124 227 
182 17 222 132 226 
183 142 133 222 223 
184 115 118 117 228 
185 178 179 176 221 
186 114 122 118 228 
187 136 142 222 223 
188 177 224 187 228 
189 110 111 109 227 
190 119 118 221 225 
191 135 180 175 224 
192 144 152 122 228 
193 133 132 131 222 
194 153 157 147 228 
195 179 176 221 223 
196 164 168 221 223 
197 135 223 180 224 
198 149 226 220 227 
199 121 225 1 227 
200 157 224 147 228 
201 180 223 187 224 
202 119 124 118 225 
203 121 124 225 227 
204 181 187 177 224 
205 157 151 147 224 
206 168 173 159 221 
207 150 145 157 224 
208 180 187 175 224 
209 136 130 142 223 
210 19 146 148 226 
211 144 153 152 228 
212 144 227 153 228 
213 164 168 167 221 
214 111 225 109 227 
215 116 121 124 225 
216 1 121 116 225 
217 150 129 145 224 
218 173 222 166 225 
219 150 224 157 226 
220 114 118 227 228 
221 166 173 163 222 
222 174 183 179 221 
223 148 226 149 227 
224 133 132 222 226 
225 159 221 173 225 
226 164 163 168 223 
227 138 180 135 223 
228 109 112 110 226 
229 159 165 119 225 
230 159 173 165 225 
231 173 166 161 225 
232 188 158 177 228 
233 39 174 117 182 
234 119 165 123 225 
235 147 54 181 151 
236 129 224 150 226 
237 159 119 221 225 
238 117 115 174 39 
239 180 179 187 223 
240 129 150 134 226 
241 60 176 164 178 
242 167 60 164 178 
243 176 184 169 223 
244 114 118 124 227 
245 112 109 222 226 
246 19 226 148 227 
247 54 181 177 147 
248 144 128 156 227 
249 160 162 136 48 
250 125 174 186 221 
251 141 169 184 223 
252 166 222 15 225 
253 164 176 169 223 
254 180 138 135 175 
255 162 140 170 222 
256 161 166 15 225 
257 30 158 188 228 
258 133 224 129 226 
259 167 186 178 221 
260 141 184 138 223 
261 141 130 169 223 
262 17 112 222 226 
263 149 150 157 226 
264 125 115 174 221 
265 160 169 130 223 
266 167 172 186 221 
267 15 222 109 225 
268 144 149 153 227 
269 188 182 126 228 
270 162 136 140 222 
271 110 226 19 227 
272 158 147 177 228 
273 111 1 225 227 
274 160 136 130 48 
275 137 135 175 224 
276 30 188 126 228 
277 133 129 134 226 
278 120 158 30 228 
279 120 152 158 228 
280 136 142 133 222 
281 186 172 125 221 
282 171 127 123 225 
283 118 115 119 221 
284 152 122 31 144 
285 171 123 165 225 
286 165 119 123 37 
287 128 32 144 156 
288 144 114 128 227 
289 125 172 159 221 
290 184 180 138 223 
291 163 164 160 223 
292 138 180 45 175 
293 45 135 138 175 
294 166 163 162 222 
295 129 133 135 224 
296 158 177 53 188 
297 176 179 180 223 
298 126 120 30 228 
299 178 186 174 221 
300 134 154 139 226 
301 159 119 125 221 
302 138 130 141 223 
303 114 31 122 144 
304 37 165 119 159 
305 129 42 150 145 
306 114 128 32 144 
307 182 117 126 228 
308 188 177 182 228 
309 178 174 179 221 
310 154 146 18 226 
311 139 154 18 226 
312 120 122 152 228 
313 117 120 126 228 
314 138 142 130 223 
315 164 169 160 223 
316 18 132 139 226 
317 40 186 125 174 
318 182 177 183 228 
319 45 135 175 137 
320 16 131 17 222 
321 154 134 150 226 
322 171 14 127 225 
323 138 135 142 223 
324 18 146 19 226 
325 146 150 149 226 
326 176 180 184 223 
327 20 121 1 227 
328 185 155 143 224 
329 115 40 125 174 
330 166 162 170 222 
331 156 148 144 227 
332 152 147 158 228 
333 171 161 14 225 
334 14 161 15 225 
335 177 158 53 147 
336 119 123 116 225 
337 122 117 118 228 
338 134 129 42 150 
339 140 136 131 222 
340 120 117 122 228 
341 133 131 136 222 
342 148 149 144 227 
343 185 143 137 224 
344 167 168 159 221 
345 154 150 146 226 
346 151 155 185 224 
347 185 181 151 224 
348 167 159 172 221 
349 121 128 114 227 
350 119 115 125 221 
351 121 114 124 227 
352 20 156 128 227 
353 164 169 176 61 
354 184 176 169 61 
355 19 110 112 226 
356 147 152 153 228 
357 170 140 16 222 
358 186 59 167 178 
359 140 131 16 222 
360 134 132 133 226 
361 111 110 20 227 
362 156 20 148 227 
363 121 20 128 227 
364 162 49 140 136 
365 170 162 49 140 
366 116 124 119 225 
367 165 161 171 225 
368 16 166 170 222 
369 139 132 134 226 
370 175 185 137 224 
371 16 112 109 222 
372 129 143 155 224 
373 112 16 17 222 
374 14 116 127 225 
375 167 172 59 186 
376 127 116 123 225 
377 47 130 160 169 
378 109 111 15 225 
379 20 1 111 227 
380 169 47 130 141 
381 18 19 112 226 
382 129 155 145 224 
383 19 148 20 227 
384 15 166 16 222 
385 14 15 111 225 
386 173 161 165 225 
387 174 115 40 39 
388 15 16 109 222 
389 110 19 20 227 
390 154 134 139 43 
391 146 18 58 154 
392 114 32 31 144 
393 50 18 17 132 
394 18 50 139 132 
395 61 176 164 60 
396 155 151 185 55 
397 145 151 157 224 
398 175 187 181 224 
399 181 185 151 55 
400 43 154 134 150 
401 125 36 119 159 
402 162 49 136 48 
403 125 36 159 172 
404 122 31 120 152 
405 175 181 185 224 
406 145 155 151 224 
407 35 14 1 116 
408 129 137 143 224 
409 37 119 36 159 
410 123 38 127 171 
411 116 35 14 127 
412 39 117 126 182 
413 20 56 156 148 
414 141 184 46 138 
415 141 169 11 184 
416 166 64 16 170 
417 171 123 38 165 
418 130 160 48 47 
419 177 53 54 147 
420 137 129 135 224 
421 171 62 14 161 
422 172 125 8 186 
423 7 14 127 171 
424 139 10 18 154 
425 60 167 59 178 
426 19 18 58 146 
427 33 20 128 121 
428 17 16 52 131 
429 143 185 9 155 
430 16 52 131 140 
431 42 43 134 150 
432 138 184 46 180 
433 1 20 33 121 
434 62 15 14 161 
435 151 54 181 55 
436 155 185 9 55 
437 14 7 62 171 
438 58 18 10 154 
439 50 10 18 139 
440 7 14 35 127 
441 169 11 47 141 
442 44 175 185 137 
443 56 20 19 148 
444 145 129 42 41 
445 64 16 15 166 
446 11 141 184 46 
447 128 20 6 156 
448 143 44 185 137 
449 184 169 11 61 
450 186 125 8 40 
451 170 12 16 140 
452 175 44 45 137 
453 59 172 8 186 
454 131 51 17 132 
455 165 123 38 37 
456 17 52 51 131 
457 51 50 17 132 
458 185 9 44 143 
459 158 3 188 53 
460 127 38 7 171 
461 41 143 9 155 
462 139 10 154 43 
463 52 16 12 140 
464 12 16 64 170 
465 35 1 34 116 
466 56 6 20 156 
467 128 6 20 33 
468 126 5 39 182 
469 12 170 49 140 
470 30 3 188 158 
471 116 1 34 121 
472 36 125 8 172 
473 180 46 138 45 
474 6 32 128 156 
475 148 19 57 146 
476 120 31 4 152 
477 58 57 19 146 
478 63 64 15 166 
479 57 56 19 148 
480 33 34 1 121 
481 158 120 4 152 
482 161 63 15 166 
483 182 126 5 188 
484 62 63 15 161 
485 30 120 4 158 
486 4 3 30 158 
487 188 5 3 30 
488 188 126 5 30 
489 228 114 144 227 
490 228 144 114 122 
491 226 17 18 132 
492 226 18 17 112 
493 1 225 14 111 
494 14 225 1 116 
495 129 155 41 145 
496 41 155 129 143 
3 3 4 97
497 216 190 204 209 
498 207 202 204 191 
499 209 216 190 65 
500 216 208 190 65 
501 202 198 204 191 
502 201 193 195 229 
503 202 203 66 196 
504 66 198 203 202 
505 203 201 66 196 
506 191 202 66 196 
507 203 201 193 66 
508 202 66 198 191 
509 66 201 193 195 
510 195 66 201 196 
511 209 65 206 207 
512 201 199 193 229 
513 201 195 200 229 
514 209 3 192 206 
515 206 192 209 207 
516 201 215 199 229 
517 208 213 3 65 
518 199 203 201 193 
519 198 204 203 202 
520 201 200 214 229 
521 67 195 193 229 
522 200 195 201 196 
523 201 203 202 196 
524 191 207 202 196 
525 65 206 207 191 
526 198 203 193 66 
527 66 193 67 195 
528 217 189 205 229 
529 216 204 203 198 
530 210 189 217 229 
531 217 189 70 205 
532 189 71 210 217 
533 195 191 66 196 
534 201 214 215 229 
535 199 203 215 201 
536 65 198 66 191 
537 217 205 194 229 
538 209 202 204 207 
539 217 69 194 205 
540 210 217 197 229 
541 72 197 210 217 
542 209 3 190 75 
543 214 205 189 229 
544 205 214 200 229 
545 69 217 70 205 
546 212 217 211 229 
547 189 70 71 217 
548 71 72 210 217 
549 74 209 3 192 
550 211 217 194 229 
551 193 199 197 229 
552 194 200 195 229 
553 69 68 217 194 
554 205 200 194 229 
555 190 76 3 208 
556 3 209 74 75 
557 3 76 190 75 
558 68 211 217 194 
559 193 212 67 229 
560 193 197 212 229 
561 211 194 195 229 
562 206 65 3 30 
563 213 4 3 65 
564 72 197 217 73 
565 212 217 13 211 
566 217 212 197 229 
567 65 4 3 30 
568 211 195 67 229 
569 212 217 197 73 
570 214 189 215 229 
571 215 189 210 229 
572 76 77 3 208 
573 199 210 197 229 
574 192 3 5 206 
575 13 217 212 73 
576 212 211 67 229 
577 211 217 13 68 
578 199 215 210 229 
579 213 3 77 208 
580 3 5 74 192 
581 77 4 3 213 
582 3 5 206 30 
583 13 67 212 211 
584 65 208 198 216 
585 65 198 208 213 
586 191 65 204 207 
587 209 65 204 216 
588 209 204 65 207 
589 190 3 65 208 
590 65 209 3 190 
591 3 209 65 206 
592 65 204 198 191 
593 65 198 204 216 
$EndElements
