solid GmshModel
  facet normal 0.0 0.0 0.0
    outer loop
      vertex 4.656805828225658 8.04476994832722 14.67974683811298
      vertex 3.165540696348388 7.100804077302064 16.0549124169475
      vertex 5.138273673522312 7.625415847883502 16.85472710143952
    endloop
  endfacet
  facet normal 0.0 0.0 0.0
    outer loop
      vertex 6.965541418427036 2.739237067152133 15.02134676774364
      vertex 7.980019794140315 5.027237637932358 15.09927865640006
      vertex 7.368168572697946 3.843483168940172 16.82260119633164
    endloop
  endfacet
  facet normal 0.0 0.0 0.0
    outer loop
      vertex 7.28508316116758 6.318207238325913 16.80978072905499
      vertex 7.980019794140315 5.027237637932358 15.09927865640006
      vertex 6.728862824282229 7.434869395275797 15.06886170009784
    endloop
  endfacet
  facet normal 0.0 0.0 0.0
    outer loop
      vertex 5.275194278358928 2.385988450694735 16.85771303126739
      vertex 3.103839825333638 2.947305675903832 16.02772620851867
      vertex 4.330045901893662 1.967085675588716 14.46986172567645
    endloop
  endfacet
  facet normal 0.0 0.0 0.0
    outer loop
      vertex 6.728862824282229 7.434869395275797 15.06886170009784
      vertex 4.656805828225658 8.04476994832722 14.67974683811298
      vertex 5.138273673522312 7.625415847883502 16.85472710143952
    endloop
  endfacet
  facet normal 0.0 0.0 0.0
    outer loop
      vertex 5.275194278358928 2.385988450694735 16.85771303126739
      vertex 4.330045901893662 1.967085675588716 14.46986172567645
      vertex 6.965541418427036 2.739237067152133 15.02134676774364
    endloop
  endfacet
  facet normal 0.0 0.0 0.0
    outer loop
      vertex 2.000000000000978 5.0 14.99999999999979
      vertex 3.103839825333638 2.947305675903832 16.02772620851867
      vertex 2.500000000000489 5.0 17.4999999999999
    endloop
  endfacet
  facet normal 0.0 0.0 0.0
    outer loop
      vertex 2.000000000000978 5.0 14.99999999999979
      vertex 2.500000000000489 5.0 17.4999999999999
      vertex 3.165540696348388 7.100804077302064 16.0549124169475
    endloop
  endfacet
  facet normal 0.0 0.0 0.0
    outer loop
      vertex 7.368168572697946 3.843483168940172 16.82260119633164
      vertex 5.275194278358928 2.385988450694735 16.85771303126739
      vertex 6.965541418427036 2.739237067152133 15.02134676774364
    endloop
  endfacet
  facet normal 0.0 0.0 0.0
    outer loop
      vertex 7.980019794140315 5.027237637932358 15.09927865640006
      vertex 7.28508316116758 6.318207238325913 16.80978072905499
      vertex 7.368168572697946 3.843483168940172 16.82260119633164
    endloop
  endfacet
  facet normal 0.0 0.0 0.0
    outer loop
      vertex 6.728862824282229 7.434869395275797 15.06886170009784
      vertex 5.138273673522312 7.625415847883502 16.85472710143952
      vertex 7.28508316116758 6.318207238325913 16.80978072905499
    endloop
  endfacet
  facet normal 0.0 0.0 0.0
    outer loop
      vertex 2.396442796820659 3.296636246550462 14.44368441212023
      vertex 3.103839825333638 2.947305675903832 16.02772620851867
      vertex 2.000000000000978 5.0 14.99999999999979
    endloop
  endfacet
  facet normal 0.0 0.0 0.0
    outer loop
      vertex 2.000000000000978 5.0 14.99999999999979
      vertex 3.165540696348388 7.100804077302064 16.0549124169475
      vertex 2.508821171095431 7.017258166780375 13.97244367579724
    endloop
  endfacet
  facet normal 0.0 0.0 0.0
    outer loop
      vertex 3.165540696348388 7.100804077302064 16.0549124169475
      vertex 4.656805828225658 8.04476994832722 14.67974683811298
      vertex 2.508821171095431 7.017258166780375 13.97244367579724
    endloop
  endfacet
  facet normal 0.0 0.0 0.0
    outer loop
      vertex 3.084494574109199 6.17450447196804 18.7654308145691
      vertex 3.75302039628253 6.563662964936057 20.0
      vertex 4.479940383305669 7.215957166420099 18.61917383455394
    endloop
  endfacet
  facet normal 0.0 0.0 0.0
    outer loop
      vertex 2.396442796820659 3.296636246550462 14.44368441212023
      vertex 4.330045901893662 1.967085675588716 14.46986172567645
      vertex 3.103839825333638 2.947305675903832 16.02772620851867
    endloop
  endfacet
  facet normal 0.0 0.0 0.0
    outer loop
      vertex 4.469854925179315 2.788240675549527 18.62795850600093
      vertex 6.424472774493734 3.213767638704526 18.57661528506954
      vertex 5.445041867912638 3.050144175636355 20.0
    endloop
  endfacet
  facet normal 0.0 0.0 0.0
    outer loop
      vertex 1.500000000001469 5.0 12.49999999999969
      vertex 2.000000000000978 5.0 14.99999999999979
      vertex 2.508821171095431 7.017258166780375 13.97244367579724
    endloop
  endfacet
  facet normal 0.0 0.0 0.0
    outer loop
      vertex 5.445041867912622 6.949855824363649 20.0
      vertex 6.418335080126052 6.795977319439147 18.55752547364079
      vertex 4.479940383305669 7.215957166420099 18.61917383455394
    endloop
  endfacet
  facet normal 0.0 0.0 0.0
    outer loop
      vertex 4.469854925179315 2.788240675549527 18.62795850600093
      vertex 3.753020396282538 3.436337035063937 20.0
      vertex 3.12953790306275 3.752201207815167 18.7576356113848
    endloop
  endfacet
  facet normal 0.0 0.0 0.0
    outer loop
      vertex 1.945296183049211 6.912481552163012 11.98001033806456
      vertex 1.500000000001469 5.0 12.49999999999969
      vertex 2.508821171095431 7.017258166780375 13.97244367579724
    endloop
  endfacet
  facet normal 0.0 0.0 0.0
    outer loop
      vertex 2.396442796820659 3.296636246550462 14.44368441212023
      vertex 2.000000000000978 5.0 14.99999999999979
      vertex 1.500000000001469 5.0 12.49999999999969
    endloop
  endfacet
  facet normal 0.0 0.0 0.0
    outer loop
      vertex 7.284676942986254 5.00000000000001 18.57661528506961
      vertex 6.801937735804843 4.132232521764892 20.0
      vertex 6.424472774493734 3.213767638704526 18.57661528506954
    endloop
  endfacet
  facet normal 0.0 0.0 0.0
    outer loop
      vertex 6.801937735804835 5.867767478235123 20.0
      vertex 7.284676942986254 5.00000000000001 18.57661528506961
      vertex 6.418335080126052 6.795977319439147 18.55752547364079
    endloop
  endfacet
  facet normal 0.0 0.0 0.0
    outer loop
      vertex 3.165540696348388 7.100804077302064 16.0549124169475
      vertex 2.500000000000489 5.0 17.4999999999999
      vertex 3.397669513001307 6.890713452726908 17.60820800904233
    endloop
  endfacet
  facet normal 0.0 0.0 0.0
    outer loop
      vertex 1.945296183049211 6.912481552163012 11.98001033806456
      vertex 2.508821171095431 7.017258166780375 13.97244367579724
      vertex 3.806891489712349 8.299561693597974 12.45675679415762
    endloop
  endfacet
  facet normal 0.0 0.0 0.0
    outer loop
      vertex 3.374000953596616 3.147065197760854 17.67397034701328
      vertex 2.500000000000489 5.0 17.4999999999999
      vertex 3.103839825333638 2.947305675903832 16.02772620851867
    endloop
  endfacet
  facet normal 0.0 0.0 0.0
    outer loop
      vertex 3.165540696348388 7.100804077302064 16.0549124169475
      vertex 3.397669513001307 6.890713452726908 17.60820800904233
      vertex 5.138273673522312 7.625415847883502 16.85472710143952
    endloop
  endfacet
  facet normal 0.0 0.0 0.0
    outer loop
      vertex 3.374000953596616 3.147065197760854 17.67397034701328
      vertex 3.103839825333638 2.947305675903832 16.02772620851867
      vertex 5.275194278358928 2.385988450694735 16.85771303126739
    endloop
  endfacet
  facet normal 0.0 0.0 0.0
    outer loop
      vertex 3.806891489712349 8.299561693597974 12.45675679415762
      vertex 2.508821171095431 7.017258166780375 13.97244367579724
      vertex 4.656805828225658 8.04476994832722 14.67974683811298
    endloop
  endfacet
  facet normal 0.0 0.0 0.0
    outer loop
      vertex 3.397669513001307 6.890713452726908 17.60820800904233
      vertex 3.084494574109199 6.17450447196804 18.7654308145691
      vertex 4.479940383305669 7.215957166420099 18.61917383455394
    endloop
  endfacet
  facet normal 0.0 0.0 0.0
    outer loop
      vertex 5.000000000000001 5.000000000000002 20.0
      vertex 5.445041867912622 6.949855824363649 20.0
      vertex 3.75302039628253 6.563662964936057 20.0
    endloop
  endfacet
  facet normal 0.0 0.0 0.0
    outer loop
      vertex 3.75302039628253 6.563662964936057 20.0
      vertex 5.445041867912622 6.949855824363649 20.0
      vertex 4.479940383305669 7.215957166420099 18.61917383455394
    endloop
  endfacet
  facet normal 0.0 0.0 0.0
    outer loop
      vertex 5.445041867912638 3.050144175636355 20.0
      vertex 3.753020396282538 3.436337035063937 20.0
      vertex 4.469854925179315 2.788240675549527 18.62795850600093
    endloop
  endfacet
  facet normal 0.0 0.0 0.0
    outer loop
      vertex 3.753020396282538 3.436337035063937 20.0
      vertex 5.445041867912638 3.050144175636355 20.0
      vertex 5.000000000000001 5.000000000000002 20.0
    endloop
  endfacet
  facet normal 0.0 0.0 0.0
    outer loop
      vertex 3.806891489712349 8.299561693597974 12.45675679415762
      vertex 4.656805828225658 8.04476994832722 14.67974683811298
      vertex 6.411258181790441 8.18157108856166 12.59738220321761
    endloop
  endfacet
  facet normal 0.0 0.0 0.0
    outer loop
      vertex 4.330045901893662 1.967085675588716 14.46986172567645
      vertex 6.448153634672937 1.82651826416551 12.55857282410275
      vertex 6.965541418427036 2.739237067152133 15.02134676774364
    endloop
  endfacet
  facet normal 0.0 0.0 0.0
    outer loop
      vertex 6.965541418427036 2.739237067152133 15.02134676774364
      vertex 8.25635657630991 3.77043835897736 12.5962073234419
      vertex 7.980019794140315 5.027237637932358 15.09927865640006
    endloop
  endfacet
  facet normal 0.0 0.0 0.0
    outer loop
      vertex 7.980019794140315 5.027237637932358 15.09927865640006
      vertex 8.207369967003059 6.328536139880828 12.64183882132362
      vertex 6.728862824282229 7.434869395275797 15.06886170009784
    endloop
  endfacet
  facet normal 0.0 0.0 0.0
    outer loop
      vertex 7.284676942986254 5.00000000000001 18.57661528506961
      vertex 6.801937735804835 5.867767478235123 20.0
      vertex 6.801937735804843 4.132232521764892 20.0
    endloop
  endfacet
  facet normal 0.0 0.0 0.0
    outer loop
      vertex 6.801937735804843 4.132232521764892 20.0
      vertex 6.801937735804835 5.867767478235123 20.0
      vertex 5.000000000000001 5.000000000000002 20.0
    endloop
  endfacet
  facet normal 0.0 0.0 0.0
    outer loop
      vertex 6.424472774493734 3.213767638704526 18.57661528506954
      vertex 6.801937735804843 4.132232521764892 20.0
      vertex 5.445041867912638 3.050144175636355 20.0
    endloop
  endfacet
  facet normal 0.0 0.0 0.0
    outer loop
      vertex 5.445041867912638 3.050144175636355 20.0
      vertex 6.801937735804843 4.132232521764892 20.0
      vertex 5.000000000000001 5.000000000000002 20.0
    endloop
  endfacet
  facet normal 0.0 0.0 0.0
    outer loop
      vertex 6.418335080126052 6.795977319439147 18.55752547364079
      vertex 5.445041867912622 6.949855824363649 20.0
      vertex 6.801937735804835 5.867767478235123 20.0
    endloop
  endfacet
  facet normal 0.0 0.0 0.0
    outer loop
      vertex 6.801937735804835 5.867767478235123 20.0
      vertex 5.445041867912622 6.949855824363649 20.0
      vertex 5.000000000000001 5.000000000000002 20.0
    endloop
  endfacet
  facet normal 0.0 0.0 0.0
    outer loop
      vertex 4.469854925179315 2.788240675549527 18.62795850600093
      vertex 3.12953790306275 3.752201207815167 18.7576356113848
      vertex 3.374000953596616 3.147065197760854 17.67397034701328
    endloop
  endfacet
  facet normal 0.0 0.0 0.0
    outer loop
      vertex 4.330045901893662 1.967085675588716 14.46986172567645
      vertex 4.416072504867588 1.474704089048356 12.13335329494016
      vertex 6.448153634672937 1.82651826416551 12.55857282410275
    endloop
  endfacet
  facet normal 0.0 0.0 0.0
    outer loop
      vertex 6.448153634672937 1.82651826416551 12.55857282410275
      vertex 8.25635657630991 3.77043835897736 12.5962073234419
      vertex 6.965541418427036 2.739237067152133 15.02134676774364
    endloop
  endfacet
  facet normal 0.0 0.0 0.0
    outer loop
      vertex 7.980019794140315 5.027237637932358 15.09927865640006
      vertex 8.25635657630991 3.77043835897736 12.5962073234419
      vertex 8.207369967003059 6.328536139880828 12.64183882132362
    endloop
  endfacet
  facet normal 0.0 0.0 0.0
    outer loop
      vertex 6.418335080126052 6.795977319439147 18.55752547364079
      vertex 5.138273673522312 7.625415847883502 16.85472710143952
      vertex 4.479940383305669 7.215957166420099 18.61917383455394
    endloop
  endfacet
  facet normal 0.0 0.0 0.0
    outer loop
      vertex 6.411258181790441 8.18157108856166 12.59738220321761
      vertex 4.656805828225658 8.04476994832722 14.67974683811298
      vertex 6.728862824282229 7.434869395275797 15.06886170009784
    endloop
  endfacet
  facet normal 0.0 0.0 0.0
    outer loop
      vertex 4.469854925179315 2.788240675549527 18.62795850600093
      vertex 5.275194278358928 2.385988450694735 16.85771303126739
      vertex 6.424472774493734 3.213767638704526 18.57661528506954
    endloop
  endfacet
  facet normal 0.0 0.0 0.0
    outer loop
      vertex 3.397669513001307 6.890713452726908 17.60820800904233
      vertex 4.479940383305669 7.215957166420099 18.61917383455394
      vertex 5.138273673522312 7.625415847883502 16.85472710143952
    endloop
  endfacet
  facet normal 0.0 0.0 0.0
    outer loop
      vertex 6.411258181790441 8.18157108856166 12.59738220321761
      vertex 6.728862824282229 7.434869395275797 15.06886170009784
      vertex 8.207369967003059 6.328536139880828 12.64183882132362
    endloop
  endfacet
  facet normal 0.0 0.0 0.0
    outer loop
      vertex 7.284676942986254 5.00000000000001 18.57661528506961
      vertex 7.368168572697946 3.843483168940172 16.82260119633164
      vertex 7.28508316116758 6.318207238325913 16.80978072905499
    endloop
  endfacet
  facet normal 0.0 0.0 0.0
    outer loop
      vertex 6.418335080126052 6.795977319439147 18.55752547364079
      vertex 7.28508316116758 6.318207238325913 16.80978072905499
      vertex 5.138273673522312 7.625415847883502 16.85472710143952
    endloop
  endfacet
  facet normal 0.0 0.0 0.0
    outer loop
      vertex 4.330045901893662 1.967085675588716 14.46986172567645
      vertex 2.931057272321141 2.301305826431496 12.99744559421885
      vertex 4.416072504867588 1.474704089048356 12.13335329494016
    endloop
  endfacet
  facet normal 0.0 0.0 0.0
    outer loop
      vertex 6.424472774493734 3.213767638704526 18.57661528506954
      vertex 5.275194278358928 2.385988450694735 16.85771303126739
      vertex 7.368168572697946 3.843483168940172 16.82260119633164
    endloop
  endfacet
  facet normal 0.0 0.0 0.0
    outer loop
      vertex 3.374000953596616 3.147065197760854 17.67397034701328
      vertex 5.275194278358928 2.385988450694735 16.85771303126739
      vertex 4.469854925179315 2.788240675549527 18.62795850600093
    endloop
  endfacet
  facet normal 0.0 0.0 0.0
    outer loop
      vertex 3.084494574109199 6.17450447196804 18.7654308145691
      vertex 3.397669513001307 6.890713452726908 17.60820800904233
      vertex 2.500000000000489 5.0 17.4999999999999
    endloop
  endfacet
  facet normal 0.0 0.0 0.0
    outer loop
      vertex 4.330045901893662 1.967085675588716 14.46986172567645
      vertex 2.396442796820659 3.296636246550462 14.44368441212023
      vertex 2.931057272321141 2.301305826431496 12.99744559421885
    endloop
  endfacet
  facet normal 0.0 0.0 0.0
    outer loop
      vertex 6.424472774493734 3.213767638704526 18.57661528506954
      vertex 7.368168572697946 3.843483168940172 16.82260119633164
      vertex 7.284676942986254 5.00000000000001 18.57661528506961
    endloop
  endfacet
  facet normal 0.0 0.0 0.0
    outer loop
      vertex 7.284676942986254 5.00000000000001 18.57661528506961
      vertex 7.28508316116758 6.318207238325913 16.80978072905499
      vertex 6.418335080126052 6.795977319439147 18.55752547364079
    endloop
  endfacet
  facet normal 0.0 0.0 0.0
    outer loop
      vertex 2.500000000000489 5.0 17.4999999999999
      vertex 3.374000953596616 3.147065197760854 17.67397034701328
      vertex 3.12953790306275 3.752201207815167 18.7576356113848
    endloop
  endfacet
  facet normal 0.0 0.0 0.0
    outer loop
      vertex 7.828427124746179 7.828427124746201 10.0
      vertex 6.411258181790441 8.18157108856166 12.59738220321761
      vertex 8.207369967003059 6.328536139880828 12.64183882132362
    endloop
  endfacet
  facet normal 0.0 0.0 0.0
    outer loop
      vertex 5.000000000000001 5.000000000000002 20.0
      vertex 3.75302039628253 6.563662964936057 20.0
      vertex 3.0 5.0 20.0
    endloop
  endfacet
  facet normal 0.0 0.0 0.0
    outer loop
      vertex 3.0 5.0 20.0
      vertex 3.75302039628253 6.563662964936057 20.0
      vertex 3.084494574109199 6.17450447196804 18.7654308145691
    endloop
  endfacet
  facet normal 0.0 0.0 0.0
    outer loop
      vertex 3.12953790306275 3.752201207815167 18.7576356113848
      vertex 3.753020396282538 3.436337035063937 20.0
      vertex 3.0 5.0 20.0
    endloop
  endfacet
  facet normal 0.0 0.0 0.0
    outer loop
      vertex 3.0 5.0 20.0
      vertex 3.753020396282538 3.436337035063937 20.0
      vertex 5.000000000000001 5.000000000000002 20.0
    endloop
  endfacet
  facet normal 0.0 0.0 0.0
    outer loop
      vertex 4.999999999999988 9.0 10.0
      vertex 3.806891489712349 8.299561693597974 12.45675679415762
      vertex 6.411258181790441 8.18157108856166 12.59738220321761
    endloop
  endfacet
  facet normal 0.0 0.0 0.0
    outer loop
      vertex 9.0 5.000000000000017 10.0
      vertex 7.828427124746179 7.828427124746201 10.0
      vertex 8.207369967003059 6.328536139880828 12.64183882132362
    endloop
  endfacet
  facet normal 0.0 0.0 0.0
    outer loop
      vertex 4.416072504867588 1.474704089048356 12.13335329494016
      vertex 5.000000000000015 1.0 10.0
      vertex 6.448153634672937 1.82651826416551 12.55857282410275
    endloop
  endfacet
  facet normal 0.0 0.0 0.0
    outer loop
      vertex 6.448153634672937 1.82651826416551 12.55857282410275
      vertex 5.000000000000015 1.0 10.0
      vertex 7.828427124746203 2.171572875253823 10.0
    endloop
  endfacet
  facet normal 0.0 0.0 0.0
    outer loop
      vertex 2.171572875253805 7.828427124746185 10.0
      vertex 3.806891489712349 8.299561693597974 12.45675679415762
      vertex 4.999999999999988 9.0 10.0
    endloop
  endfacet
  facet normal 0.0 0.0 0.0
    outer loop
      vertex 2.500000000000489 5.0 17.4999999999999
      vertex 3.12953790306275 3.752201207815167 18.7576356113848
      vertex 3.0 5.0 20.0
    endloop
  endfacet
  facet normal 0.0 0.0 0.0
    outer loop
      vertex 2.500000000000489 5.0 17.4999999999999
      vertex 3.0 5.0 20.0
      vertex 3.084494574109199 6.17450447196804 18.7654308145691
    endloop
  endfacet
  facet normal 0.0 0.0 0.0
    outer loop
      vertex 8.25635657630991 3.77043835897736 12.5962073234419
      vertex 9.0 5.000000000000017 10.0
      vertex 8.207369967003059 6.328536139880828 12.64183882132362
    endloop
  endfacet
  facet normal 0.0 0.0 0.0
    outer loop
      vertex 3.806891489712349 8.299561693597974 12.45675679415762
      vertex 2.171572875253805 7.828427124746185 10.0
      vertex 1.945296183049211 6.912481552163012 11.98001033806456
    endloop
  endfacet
  facet normal 0.0 0.0 0.0
    outer loop
      vertex 8.25635657630991 3.77043835897736 12.5962073234419
      vertex 6.448153634672937 1.82651826416551 12.55857282410275
      vertex 7.828427124746203 2.171572875253823 10.0
    endloop
  endfacet
  facet normal 0.0 0.0 0.0
    outer loop
      vertex 4.999999999999988 9.0 10.0
      vertex 6.411258181790441 8.18157108856166 12.59738220321761
      vertex 7.828427124746179 7.828427124746201 10.0
    endloop
  endfacet
  facet normal 0.0 0.0 0.0
    outer loop
      vertex 2.171572875253815 2.171572875253804 10.0
      vertex 1.778291788812676 3.24273621153479 11.65103557399264
      vertex 1.0 5.0 10.0
    endloop
  endfacet
  facet normal 0.0 0.0 0.0
    outer loop
      vertex 2.396442796820659 3.296636246550462 14.44368441212023
      vertex 1.500000000001469 5.0 12.49999999999969
      vertex 1.778291788812676 3.24273621153479 11.65103557399264
    endloop
  endfacet
  facet normal 0.0 0.0 0.0
    outer loop
      vertex 2.396442796820659 3.296636246550462 14.44368441212023
      vertex 1.778291788812676 3.24273621153479 11.65103557399264
      vertex 2.931057272321141 2.301305826431496 12.99744559421885
    endloop
  endfacet
  facet normal 0.0 0.0 0.0
    outer loop
      vertex 1.0 5.0 10.0
      vertex 1.778291788812676 3.24273621153479 11.65103557399264
      vertex 1.500000000001469 5.0 12.49999999999969
    endloop
  endfacet
  facet normal 0.0 0.0 0.0
    outer loop
      vertex 8.25635657630991 3.77043835897736 12.5962073234419
      vertex 7.828427124746203 2.171572875253823 10.0
      vertex 9.0 5.000000000000017 10.0
    endloop
  endfacet
  facet normal 0.0 0.0 0.0
    outer loop
      vertex 5.000000000000015 1.0 10.0
      vertex 4.416072504867588 1.474704089048356 12.13335329494016
      vertex 2.171572875253815 2.171572875253804 10.0
    endloop
  endfacet
  facet normal 0.0 0.0 0.0
    outer loop
      vertex 1.0 5.0 10.0
      vertex 1.500000000001469 5.0 12.49999999999969
      vertex 1.945296183049211 6.912481552163012 11.98001033806456
    endloop
  endfacet
  facet normal 0.0 0.0 0.0
    outer loop
      vertex 2.171572875253805 7.828427124746185 10.0
      vertex 1.0 5.0 10.0
      vertex 1.945296183049211 6.912481552163012 11.98001033806456
    endloop
  endfacet
  facet normal 0.0 0.0 0.0
    outer loop
      vertex 2.171572875253815 2.171572875253804 10.0
      vertex 2.931057272321141 2.301305826431496 12.99744559421885
      vertex 1.778291788812676 3.24273621153479 11.65103557399264
    endloop
  endfacet
  facet normal 0.0 0.0 0.0
    outer loop
      vertex 2.931057272321141 2.301305826431496 12.99744559421885
      vertex 2.171572875253815 2.171572875253804 10.0
      vertex 4.416072504867588 1.474704089048356 12.13335329494016
    endloop
  endfacet
  facet normal 0.0 0.0 0.0
    outer loop
      vertex 4.319339332990198 10.0 3.773688470717482
      vertex 3.999595549598592 10.0 5.936411832042555
      vertex 5.952411535454151 10.0 5.030682637775182
    endloop
  endfacet
  facet normal 0.0 0.0 0.0
    outer loop
      vertex 4.978830962414486 0.0 6.00509396422027
      vertex 3.779287636952468 0.0 4.299701239460679
      vertex 5.934830448737402 0.0 4.001226421525465
    endloop
  endfacet
  facet normal 0.0 0.0 0.0
    outer loop
      vertex 4.978830962414486 6.005093964220269 0.0
      vertex 5.934830448737403 4.001226421525462 0.0
      vertex 3.779287636952468 4.299701239460677 0.0
    endloop
  endfacet
  facet normal 0.0 0.0 0.0
    outer loop
      vertex 7.890759238962055 10.0 3.846687836487031
      vertex 5.952411535454151 10.0 5.030682637775182
      vertex 7.886460481895354 10.0 6.24527925880018
    endloop
  endfacet
  facet normal 0.0 0.0 0.0
    outer loop
      vertex 3.779287636952468 4.299701239460677 0.0
      vertex 1.854435004438947 3.366401824458178 0.0
      vertex 2.308146683704328 5.957093724292216 0.0
    endloop
  endfacet
  facet normal 0.0 0.0 0.0
    outer loop
      vertex 10.0 4.999999999999998 5.669872981077808
      vertex 10.0 4.796557459309014 2.917273223602596
      vertex 10.0 6.167782409180711 4.115958503954638
    endloop
  endfacet
  facet normal 0.0 0.0 0.0
    outer loop
      vertex 3.820195085467176 2.168690262807258 0.0
      vertex 3.779287636952468 4.299701239460677 0.0
      vertex 5.934830448737403 4.001226421525462 0.0
    endloop
  endfacet
  facet normal 0.0 0.0 0.0
    outer loop
      vertex 4.978830962414486 0.0 6.00509396422027
      vertex 6.244207341961609 0.0 7.886120274327771
      vertex 3.830768281804415 0.0 7.881568079780667
    endloop
  endfacet
  facet normal 0.0 0.0 0.0
    outer loop
      vertex 0.0 5.999999999999993 2.309401076758497
      vertex 0.0 3.690315277264737 2.405530253665048
      vertex 0.0 4.666118129761443 4.252990182384492
    endloop
  endfacet
  facet normal 0.0 0.0 0.0
    outer loop
      vertex 3.830768281804417 7.881568079780666 0.0
      vertex 6.24420734196161 7.886120274327771 0.0
      vertex 4.978830962414486 6.005093964220269 0.0
    endloop
  endfacet
  facet normal 0.0 0.0 0.0
    outer loop
      vertex 0.0 2.571479196933248 6.061376630304518
      vertex 0.0 4.666118129761443 4.252990182384492
      vertex 0.0 2.458077263046856 4.044890900053836
    endloop
  endfacet
  facet normal 0.0 0.0 0.0
    outer loop
      vertex 10.0 4.999999999999998 5.669872981077808
      vertex 10.0 6.239406576797808 7.883069887360419
      vertex 10.0 3.759949993707402 7.885993441589132
    endloop
  endfacet
  facet normal 0.0 0.0 0.0
    outer loop
      vertex 3.779287636952468 0.0 4.299701239460679
      vertex 3.820195085467177 0.0 2.168690262807259
      vertex 5.934830448737402 0.0 4.001226421525465
    endloop
  endfacet
  facet normal 0.0 0.0 0.0
    outer loop
      vertex 0.0 7.300697388276383 4.515650649338538
      vertex 0.0 4.666118129761443 4.252990182384492
      vertex 0.0 4.965053619784008 6.08926493214957
    endloop
  endfacet
  facet normal 0.0 0.0 0.0
    outer loop
      vertex 6.40797822657331 1.932036208235116 0.0
      vertex 3.820195085467176 2.168690262807258 0.0
      vertex 5.934830448737403 4.001226421525462 0.0
    endloop
  endfacet
  facet normal 0.0 0.0 0.0
    outer loop
      vertex 5.934830448737402 0.0 4.001226421525465
      vertex 3.820195085467177 0.0 2.168690262807259
      vertex 6.40797822657331 0.0 1.932036208235116
    endloop
  endfacet
  facet normal 0.0 0.0 0.0
    outer loop
      vertex 4.319339332990198 10.0 3.773688470717482
      vertex 2.257047743274071 10.0 3.829082621114845
      vertex 3.999595549598592 10.0 5.936411832042555
    endloop
  endfacet
  facet normal 0.0 0.0 0.0
    outer loop
      vertex 7.802150379282772 0.0 6.089017294984147
      vertex 5.934830448737402 0.0 4.001226421525465
      vertex 8.022970844157479 0.0 3.592173546155781
    endloop
  endfacet
  facet normal 0.0 0.0 0.0
    outer loop
      vertex 7.802150379282772 6.089017294984147 0.0
      vertex 8.02297084415748 3.592173546155781 0.0
      vertex 5.934830448737403 4.001226421525462 0.0
    endloop
  endfacet
  facet normal 0.0 0.0 0.0
    outer loop
      vertex 10.0 7.634240860678117 6.009952094312408
      vertex 10.0 6.167782409180711 4.115958503954638
      vertex 10.0 7.953881872687138 3.640358958115698
    endloop
  endfacet
  facet normal 0.0 0.0 0.0
    outer loop
      vertex 2.308146683704327 0.0 5.957093724292217
      vertex 1.854435004438947 0.0 3.366401824458178
      vertex 3.779287636952468 0.0 4.299701239460679
    endloop
  endfacet
  facet normal 0.0 0.0 0.0
    outer loop
      vertex 6.057631425839536 10.0 2.30459713512556
      vertex 3.68793662599956 10.0 1.815045068964227
      vertex 4.319339332990198 10.0 3.773688470717482
    endloop
  endfacet
  facet normal 0.0 0.0 0.0
    outer loop
      vertex 0.0 6.417826087213109 7.600193200346875
      vertex 0.0 4.965053619784008 6.08926493214957
      vertex 0.0 3.869147296735861 8.016113998373426
    endloop
  endfacet
  facet normal 0.0 0.0 0.0
    outer loop
      vertex 6.069708608369244 10.0 7.764715647316084
      vertex 5.952411535454151 10.0 5.030682637775182
      vertex 3.999595549598592 10.0 5.936411832042555
    endloop
  endfacet
  facet normal 0.0 0.0 0.0
    outer loop
      vertex 2.308146683704328 5.957093724292216 0.0
      vertex 4.978830962414486 6.005093964220269 0.0
      vertex 3.779287636952468 4.299701239460677 0.0
    endloop
  endfacet
  facet normal 0.0 0.0 0.0
    outer loop
      vertex 6.057631425839536 10.0 2.30459713512556
      vertex 4.319339332990198 10.0 3.773688470717482
      vertex 5.952411535454151 10.0 5.030682637775182
    endloop
  endfacet
  facet normal 0.0 0.0 0.0
    outer loop
      vertex 2.257047743274071 10.0 3.829082621114845
      vertex 1.946445340993804 10.0 6.409766973712813
      vertex 3.999595549598592 10.0 5.936411832042555
    endloop
  endfacet
  facet normal 0.0 0.0 0.0
    outer loop
      vertex 3.999595549598592 10.0 5.936411832042555
      vertex 3.59190173416797 10.0 8.023234408041672
      vertex 6.069708608369244 10.0 7.764715647316084
    endloop
  endfacet
  facet normal 0.0 0.0 0.0
    outer loop
      vertex 0.0 4.666666666666663 0.0
      vertex 2.308146683704328 5.957093724292216 0.0
      vertex 1.854435004438947 3.366401824458178 0.0
    endloop
  endfacet
  facet normal 0.0 0.0 0.0
    outer loop
      vertex 3.820195085467177 0.0 2.168690262807259
      vertex 5.0 0.0 0.0
      vertex 6.40797822657331 0.0 1.932036208235116
    endloop
  endfacet
  facet normal 0.0 0.0 0.0
    outer loop
      vertex 0.0 3.690315277264737 2.405530253665048
      vertex 0.0 5.999999999999993 2.309401076758497
      vertex 0.0 4.666666666666663 0.0
    endloop
  endfacet
  facet normal 0.0 0.0 0.0
    outer loop
      vertex 7.802150379282772 6.089017294984147 0.0
      vertex 5.934830448737403 4.001226421525462 0.0
      vertex 4.978830962414486 6.005093964220269 0.0
    endloop
  endfacet
  facet normal 0.0 0.0 0.0
    outer loop
      vertex 5.0 10.0 0.0
      vertex 6.24420734196161 7.886120274327771 0.0
      vertex 3.830768281804417 7.881568079780666 0.0
    endloop
  endfacet
  facet normal 0.0 0.0 0.0
    outer loop
      vertex 3.68793662599956 10.0 1.815045068964227
      vertex 6.057631425839536 10.0 2.30459713512556
      vertex 5.0 10.0 0.0
    endloop
  endfacet
  facet normal 0.0 0.0 0.0
    outer loop
      vertex 0.0 2.571479196933248 6.061376630304518
      vertex 0.0 4.965053619784008 6.08926493214957
      vertex 0.0 4.666118129761443 4.252990182384492
    endloop
  endfacet
  facet normal 0.0 0.0 0.0
    outer loop
      vertex 5.0 0.0 0.0
      vertex 3.820195085467176 2.168690262807258 0.0
      vertex 6.40797822657331 1.932036208235116 0.0
    endloop
  endfacet
  facet normal 0.0 0.0 0.0
    outer loop
      vertex 7.890759238962055 10.0 3.846687836487031
      vertex 7.886460481895354 10.0 6.24527925880018
      vertex 10.0 10.0 5.0
    endloop
  endfacet
  facet normal 0.0 0.0 0.0
    outer loop
      vertex 4.978830962414486 0.0 6.00509396422027
      vertex 5.934830448737402 0.0 4.001226421525465
      vertex 7.802150379282772 0.0 6.089017294984147
    endloop
  endfacet
  facet normal 0.0 0.0 0.0
    outer loop
      vertex 2.308146683704327 0.0 5.957093724292217
      vertex 3.779287636952468 0.0 4.299701239460679
      vertex 4.978830962414486 0.0 6.00509396422027
    endloop
  endfacet
  facet normal 0.0 0.0 0.0
    outer loop
      vertex 10.0 7.634240860678117 6.009952094312408
      vertex 10.0 7.953881872687138 3.640358958115698
      vertex 10.0 10.0 5.0
    endloop
  endfacet
  facet normal 0.0 0.0 0.0
    outer loop
      vertex 10.0 4.999999999999998 5.669872981077808
      vertex 10.0 2.125856753681781 6.329289900624124
      vertex 10.0 2.165063509461096 3.75
    endloop
  endfacet
  facet normal 0.0 0.0 0.0
    outer loop
      vertex 10.0 7.634240860678117 6.009952094312408
      vertex 10.0 4.999999999999998 5.669872981077808
      vertex 10.0 6.167782409180711 4.115958503954638
    endloop
  endfacet
  facet normal 0.0 0.0 0.0
    outer loop
      vertex 0.0 4.666118129761443 4.252990182384492
      vertex 0.0 7.300697388276383 4.515650649338538
      vertex 0.0 5.999999999999993 2.309401076758497
    endloop
  endfacet
  facet normal 0.0 0.0 0.0
    outer loop
      vertex 0.0 0.0 4.666666666666663
      vertex 1.854435004438947 0.0 3.366401824458178
      vertex 2.308146683704327 0.0 5.957093724292217
    endloop
  endfacet
  facet normal 0.0 0.0 0.0
    outer loop
      vertex 0.0 7.300697388276383 4.515650649338538
      vertex 0.0 8.375722877688826 6.471228415117215
      vertex 0.0 10.0 5.0
    endloop
  endfacet
  facet normal 0.0 0.0 0.0
    outer loop
      vertex 0.0 0.0 7.333333333333323
      vertex 2.308146683704327 0.0 5.957093724292217
      vertex 1.727782993101749 0.0 8.23439902748124
    endloop
  endfacet
  facet normal 0.0 0.0 0.0
    outer loop
      vertex 5.952411535454151 10.0 5.030682637775182
      vertex 7.890759238962055 10.0 3.846687836487031
      vertex 6.057631425839536 10.0 2.30459713512556
    endloop
  endfacet
  facet normal 0.0 0.0 0.0
    outer loop
      vertex 7.802150379282772 6.089017294984147 0.0
      vertex 10.0 5.0 0.0
      vertex 8.02297084415748 3.592173546155781 0.0
    endloop
  endfacet
  facet normal 0.0 0.0 0.0
    outer loop
      vertex 10.0 5.0 0.0
      vertex 10.0 6.25 1.552901902868391
      vertex 10.0 4.796557459309014 2.917273223602596
    endloop
  endfacet
  facet normal 0.0 0.0 0.0
    outer loop
      vertex 6.069708608369244 10.0 7.764715647316084
      vertex 7.886460481895354 10.0 6.24527925880018
      vertex 5.952411535454151 10.0 5.030682637775182
    endloop
  endfacet
  facet normal 0.0 0.0 0.0
    outer loop
      vertex 10.0 2.165063509461096 3.75
      vertex 10.0 4.796557459309014 2.917273223602596
      vertex 10.0 4.999999999999998 5.669872981077808
    endloop
  endfacet
  facet normal 0.0 0.0 0.0
    outer loop
      vertex 3.820195085467176 2.168690262807258 0.0
      vertex 2.5 0.0 0.0
      vertex 1.69036201958062 1.557184327624609 0.0
    endloop
  endfacet
  facet normal 0.0 0.0 0.0
    outer loop
      vertex 6.24420734196161 7.886120274327771 0.0
      vertex 7.802150379282772 6.089017294984147 0.0
      vertex 4.978830962414486 6.005093964220269 0.0
    endloop
  endfacet
  facet normal 0.0 0.0 0.0
    outer loop
      vertex 0.0 2.626733843515868 1.33152691665732
      vertex -3.140184917367108e-16 1.414213562373095 1.414213562373095
      vertex 0.0 1.362473711274849 2.837890767248463
    endloop
  endfacet
  facet normal 0.0 0.0 0.0
    outer loop
      vertex 3.830768281804417 7.881568079780666 0.0
      vertex 2.308146683704328 5.957093724292216 0.0
      vertex 1.727782993101749 8.23439902748124 0.0
    endloop
  endfacet
  facet normal 0.0 0.0 0.0
    outer loop
      vertex 10.0 6.25 1.552901902868391
      vertex 10.0 8.219022194693537 1.749592066742908
      vertex 10.0 7.953881872687138 3.640358958115698
    endloop
  endfacet
  facet normal 0.0 0.0 0.0
    outer loop
      vertex 0.0 2.571479196933248 6.061376630304518
      vertex 0.0 2.458077263046856 4.044890900053836
      vertex 0.0 0.0 4.666666666666663
    endloop
  endfacet
  facet normal 0.0 0.0 0.0
    outer loop
      vertex 0.0 10.0 5.0
      vertex 1.946445340993804 10.0 6.409766973712813
      vertex 2.257047743274071 10.0 3.829082621114845
    endloop
  endfacet
  facet normal 0.0 0.0 0.0
    outer loop
      vertex 10.0 0.0 5.0
      vertex 7.802150379282772 0.0 6.089017294984147
      vertex 8.022970844157479 0.0 3.592173546155781
    endloop
  endfacet
  facet normal 0.0 0.0 0.0
    outer loop
      vertex 0.0 2.571479196933248 6.061376630304518
      vertex 0.0 0.0 7.333333333333323
      vertex 0.0 1.78883326201861 8.247218050166037
    endloop
  endfacet
  facet normal 0.0 0.0 0.0
    outer loop
      vertex 1.69036201958062 1.557184327624609 0.0
      vertex 1.854435004438947 3.366401824458178 0.0
      vertex 3.820195085467176 2.168690262807258 0.0
    endloop
  endfacet
  facet normal 0.0 0.0 0.0
    outer loop
      vertex 3.830768281804417 7.881568079780666 0.0
      vertex 4.978830962414486 6.005093964220269 0.0
      vertex 2.308146683704328 5.957093724292216 0.0
    endloop
  endfacet
  facet normal 0.0 0.0 0.0
    outer loop
      vertex 0.0 3.690315277264737 2.405530253665048
      vertex 0.0 2.626733843515868 1.33152691665732
      vertex 0.0 1.362473711274849 2.837890767248463
    endloop
  endfacet
  facet normal 0.0 0.0 0.0
    outer loop
      vertex 10.0 6.25 1.552901902868391
      vertex 10.0 7.953881872687138 3.640358958115698
      vertex 10.0 6.167782409180711 4.115958503954638
    endloop
  endfacet
  facet normal 0.0 0.0 0.0
    outer loop
      vertex 6.057631425839536 10.0 2.30459713512556
      vertex 7.890759238962055 10.0 3.846687836487031
      vertex 8.169872981077807 10.0 1.830127018922193
    endloop
  endfacet
  facet normal 0.0 0.0 0.0
    outer loop
      vertex 0.0 7.333333333333323 0.0
      vertex 1.727782993101749 8.23439902748124 0.0
      vertex 2.308146683704328 5.957093724292216 0.0
    endloop
  endfacet
  facet normal 0.0 0.0 0.0
    outer loop
      vertex 1.854435004438947 3.366401824458178 0.0
      vertex 3.779287636952468 4.299701239460677 0.0
      vertex 3.820195085467176 2.168690262807258 0.0
    endloop
  endfacet
  facet normal 0.0 0.0 0.0
    outer loop
      vertex 10.0 5.0 0.0
      vertex 10.0 4.796557459309014 2.917273223602596
      vertex 10.0 3.103138265074932 1.768489190752347
    endloop
  endfacet
  facet normal 0.0 0.0 0.0
    outer loop
      vertex 10.0 6.25 1.552901902868391
      vertex 10.0 6.167782409180711 4.115958503954638
      vertex 10.0 4.796557459309014 2.917273223602596
    endloop
  endfacet
  facet normal 0.0 0.0 0.0
    outer loop
      vertex 6.244207341961609 0.0 7.886120274327771
      vertex 4.978830962414486 0.0 6.00509396422027
      vertex 7.802150379282772 0.0 6.089017294984147
    endloop
  endfacet
  facet normal 0.0 0.0 0.0
    outer loop
      vertex 6.24420734196161 7.886120274327771 0.0
      vertex 8.169872981077807 8.169872981077807 0.0
      vertex 7.802150379282772 6.089017294984147 0.0
    endloop
  endfacet
  facet normal 0.0 0.0 0.0
    outer loop
      vertex 0.0 5.999999999999993 2.309401076758497
      vertex 0.0 8.022268757099686 1.937357770204776
      vertex 0.0 7.333333333333323 0.0
    endloop
  endfacet
  facet normal 0.0 0.0 0.0
    outer loop
      vertex 6.069708608369244 10.0 7.764715647316084
      vertex 8.169872981077807 10.0 8.169872981077807
      vertex 7.886460481895354 10.0 6.24527925880018
    endloop
  endfacet
  facet normal 0.0 0.0 0.0
    outer loop
      vertex 1.727782993101749 0.0 8.23439902748124
      vertex 2.308146683704327 0.0 5.957093724292217
      vertex 3.830768281804415 0.0 7.881568079780667
    endloop
  endfacet
  facet normal 0.0 0.0 0.0
    outer loop
      vertex 1.854435004438947 0.0 3.366401824458178
      vertex 1.690362019580621 0.0 1.557184327624609
      vertex 3.820195085467177 0.0 2.168690262807259
    endloop
  endfacet
  facet normal 0.0 0.0 0.0
    outer loop
      vertex 1.690362019580621 0.0 1.557184327624609
      vertex 2.5 0.0 0.0
      vertex 3.820195085467177 0.0 2.168690262807259
    endloop
  endfacet
  facet normal 0.0 0.0 0.0
    outer loop
      vertex 0.0 7.300697388276383 4.515650649338538
      vertex 0.0 6.417826087213109 7.600193200346875
      vertex 0.0 8.375722877688826 6.471228415117215
    endloop
  endfacet
  facet normal 0.0 0.0 0.0
    outer loop
      vertex 0.0 2.458077263046856 4.044890900053836
      vertex 0.0 4.666118129761443 4.252990182384492
      vertex 0.0 3.690315277264737 2.405530253665048
    endloop
  endfacet
  facet normal 0.0 0.0 0.0
    outer loop
      vertex 10.0 2.125856753681781 6.329289900624124
      vertex 10.0 0.0 5.0
      vertex 10.0 2.165063509461096 3.75
    endloop
  endfacet
  facet normal 0.0 0.0 0.0
    outer loop
      vertex 10.0 8.169872981077807 8.169872981077807
      vertex 10.0 6.239406576797808 7.883069887360419
      vertex 10.0 7.634240860678117 6.009952094312408
    endloop
  endfacet
  facet normal 0.0 0.0 0.0
    outer loop
      vertex 0.0 1.362473711274849 2.837890767248463
      vertex 0.0 2.458077263046856 4.044890900053836
      vertex 0.0 3.690315277264737 2.405530253665048
    endloop
  endfacet
  facet normal 0.0 0.0 0.0
    outer loop
      vertex 10.0 4.999999999999998 5.669872981077808
      vertex 10.0 7.634240860678117 6.009952094312408
      vertex 10.0 6.239406576797808 7.883069887360419
    endloop
  endfacet
  facet normal 0.0 0.0 0.0
    outer loop
      vertex 3.830768281804415 0.0 7.881568079780667
      vertex 2.308146683704327 0.0 5.957093724292217
      vertex 4.978830962414486 0.0 6.00509396422027
    endloop
  endfacet
  facet normal 0.0 0.0 0.0
    outer loop
      vertex 3.68793662599956 10.0 1.815045068964227
      vertex 2.257047743274071 10.0 3.829082621114845
      vertex 4.319339332990198 10.0 3.773688470717482
    endloop
  endfacet
  facet normal 0.0 0.0 0.0
    outer loop
      vertex 8.169872981077807 0.0 8.169872981077807
      vertex 6.244207341961609 0.0 7.886120274327771
      vertex 7.802150379282772 0.0 6.089017294984147
    endloop
  endfacet
  facet normal 0.0 0.0 0.0
    outer loop
      vertex 3.68793662599956 10.0 1.815045068964227
      vertex 1.815079327258486 10.0 1.815079327258486
      vertex 2.257047743274071 10.0 3.829082621114845
    endloop
  endfacet
  facet normal 0.0 0.0 0.0
    outer loop
      vertex 0.0 3.869147296735861 8.016113998373426
      vertex 0.0 2.571479196933248 6.061376630304518
      vertex 0.0 1.78883326201861 8.247218050166037
    endloop
  endfacet
  facet normal 0.0 0.0 0.0
    outer loop
      vertex 0.0 7.300697388276383 4.515650649338538
      vertex 0.0 8.022268757099686 1.937357770204776
      vertex 0.0 5.999999999999993 2.309401076758497
    endloop
  endfacet
  facet normal 0.0 0.0 0.0
    outer loop
      vertex 0.0 3.869147296735861 8.016113998373426
      vertex 0.0 4.965053619784008 6.08926493214957
      vertex 0.0 2.571479196933248 6.061376630304518
    endloop
  endfacet
  facet normal 0.0 0.0 0.0
    outer loop
      vertex 6.057631425839536 10.0 2.30459713512556
      vertex 8.169872981077807 10.0 1.830127018922193
      vertex 7.5 10.0 0.0
    endloop
  endfacet
  facet normal 0.0 0.0 0.0
    outer loop
      vertex 8.169872981077807 8.169872981077807 0.0
      vertex 6.24420734196161 7.886120274327771 0.0
      vertex 7.5 10.0 0.0
    endloop
  endfacet
  facet normal 0.0 0.0 0.0
    outer loop
      vertex 3.820195085467177 0.0 2.168690262807259
      vertex 3.779287636952468 0.0 4.299701239460679
      vertex 1.854435004438947 0.0 3.366401824458178
    endloop
  endfacet
  facet normal 0.0 0.0 0.0
    outer loop
      vertex 1.727782993101749 8.23439902748124 0.0
      vertex 2.5 10.0 0.0
      vertex 3.830768281804417 7.881568079780666 0.0
    endloop
  endfacet
  facet normal 0.0 0.0 0.0
    outer loop
      vertex 10.0 2.125856753681781 6.329289900624124
      vertex 10.0 4.999999999999998 5.669872981077808
      vertex 10.0 3.759949993707402 7.885993441589132
    endloop
  endfacet
  facet normal 0.0 0.0 0.0
    outer loop
      vertex 10.0 10.0 7.5
      vertex 10.0 8.169872981077807 8.169872981077807
      vertex 10.0 7.634240860678117 6.009952094312408
    endloop
  endfacet
  facet normal 0.0 0.0 0.0
    outer loop
      vertex 8.169872981077807 10.0 8.169872981077807
      vertex 10.0 10.0 7.5
      vertex 7.886460481895354 10.0 6.24527925880018
    endloop
  endfacet
  facet normal 0.0 0.0 0.0
    outer loop
      vertex 0.0 6.417826087213109 7.600193200346875
      vertex 0.0 7.300697388276383 4.515650649338538
      vertex 0.0 4.965053619784008 6.08926493214957
    endloop
  endfacet
  facet normal 0.0 0.0 0.0
    outer loop
      vertex 1.946445340993804 10.0 6.409766973712813
      vertex 1.830127018922193 10.0 8.169872981077807
      vertex 3.59190173416797 10.0 8.023234408041672
    endloop
  endfacet
  facet normal 0.0 0.0 0.0
    outer loop
      vertex 10.0 1.830127018922193 8.169872981077807
      vertex 10.0 2.125856753681781 6.329289900624124
      vertex 10.0 3.759949993707402 7.885993441589132
    endloop
  endfacet
  facet normal 0.0 0.0 0.0
    outer loop
      vertex 3.68793662599956 10.0 1.815045068964227
      vertex 2.5 10.0 0.0
      vertex 1.815079327258486 10.0 1.815079327258486
    endloop
  endfacet
  facet normal 0.0 0.0 0.0
    outer loop
      vertex 0.0 8.182755056135097 8.182755056135097
      vertex 0.0 8.375722877688826 6.471228415117215
      vertex 0.0 6.417826087213109 7.600193200346875
    endloop
  endfacet
  facet normal 0.0 0.0 0.0
    outer loop
      vertex 7.890759238962055 10.0 3.846687836487031
      vertex 10.0 10.0 2.5
      vertex 8.169872981077807 10.0 1.830127018922193
    endloop
  endfacet
  facet normal 0.0 0.0 0.0
    outer loop
      vertex 10.0 10.0 2.5
      vertex 10.0 7.953881872687138 3.640358958115698
      vertex 10.0 8.219022194693537 1.749592066742908
    endloop
  endfacet
  facet normal 0.0 0.0 0.0
    outer loop
      vertex 3.999595549598592 10.0 5.936411832042555
      vertex 1.946445340993804 10.0 6.409766973712813
      vertex 3.59190173416797 10.0 8.023234408041672
    endloop
  endfacet
  facet normal 0.0 0.0 0.0
    outer loop
      vertex 0.0 5.999999999999993 2.309401076758497
      vertex 0.0 7.333333333333323 0.0
      vertex 0.0 4.666666666666663 0.0
    endloop
  endfacet
  facet normal 0.0 0.0 0.0
    outer loop
      vertex 0.0 7.333333333333323 0.0
      vertex 2.308146683704328 5.957093724292216 0.0
      vertex 0.0 4.666666666666663 0.0
    endloop
  endfacet
  facet normal 0.0 0.0 0.0
    outer loop
      vertex 10.0 2.125856753681781 6.329289900624124
      vertex 10.0 1.830127018922193 8.169872981077807
      vertex 10.0 0.0 7.5
    endloop
  endfacet
  facet normal 0.0 0.0 0.0
    outer loop
      vertex 7.5 0.0 10.0
      vertex 6.244207341961609 0.0 7.886120274327771
      vertex 8.169872981077807 0.0 8.169872981077807
    endloop
  endfacet
  facet normal 0.0 0.0 0.0
    outer loop
      vertex 0.0 2.571479196933248 6.061376630304518
      vertex 0.0 0.0 4.666666666666663
      vertex 0.0 0.0 7.333333333333323
    endloop
  endfacet
  facet normal 0.0 0.0 0.0
    outer loop
      vertex 0.0 0.0 7.333333333333323
      vertex 0.0 0.0 4.666666666666663
      vertex 2.308146683704327 0.0 5.957093724292217
    endloop
  endfacet
  facet normal 0.0 0.0 0.0
    outer loop
      vertex 10.0 2.5 10.0
      vertex 9.0 5.000000000000017 10.0
      vertex 7.828427124746203 2.171572875253823 10.0
    endloop
  endfacet
  facet normal 0.0 0.0 0.0
    outer loop
      vertex 10.0 2.5 10.0
      vertex 10.0 1.830127018922193 8.169872981077807
      vertex 10.0 3.759949993707402 7.885993441589132
    endloop
  endfacet
  facet normal 0.0 0.0 0.0
    outer loop
      vertex 7.5 10.0 0.0
      vertex 6.24420734196161 7.886120274327771 0.0
      vertex 5.0 10.0 0.0
    endloop
  endfacet
  facet normal 0.0 0.0 0.0
    outer loop
      vertex 6.057631425839536 10.0 2.30459713512556
      vertex 7.5 10.0 0.0
      vertex 5.0 10.0 0.0
    endloop
  endfacet
  facet normal 0.0 0.0 0.0
    outer loop
      vertex 8.169872981077807 0.0 1.830127018922193
      vertex 6.40797822657331 0.0 1.932036208235116
      vertex 7.5 0.0 0.0
    endloop
  endfacet
  facet normal 0.0 0.0 0.0
    outer loop
      vertex 8.022970844157479 0.0 3.592173546155781
      vertex 5.934830448737402 0.0 4.001226421525465
      vertex 6.40797822657331 0.0 1.932036208235116
    endloop
  endfacet
  facet normal 0.0 0.0 0.0
    outer loop
      vertex 8.02297084415748 3.592173546155781 0.0
      vertex 6.40797822657331 1.932036208235116 0.0
      vertex 5.934830448737403 4.001226421525462 0.0
    endloop
  endfacet
  facet normal 0.0 0.0 0.0
    outer loop
      vertex 6.40797822657331 1.932036208235116 0.0
      vertex 8.169872981077807 1.830127018922193 0.0
      vertex 7.5 0.0 0.0
    endloop
  endfacet
  facet normal 0.0 0.0 0.0
    outer loop
      vertex 10.0 0.0 7.5
      vertex 8.169872981077807 0.0 8.169872981077807
      vertex 7.802150379282772 0.0 6.089017294984147
    endloop
  endfacet
  facet normal 0.0 0.0 0.0
    outer loop
      vertex 0.0 8.022268757099686 1.937357770204776
      vertex 0.0 7.300697388276383 4.515650649338538
      vertex 0.0 10.0 2.5
    endloop
  endfacet
  facet normal 0.0 0.0 0.0
    outer loop
      vertex 7.886460481895354 10.0 6.24527925880018
      vertex 10.0 10.0 7.5
      vertex 10.0 10.0 5.0
    endloop
  endfacet
  facet normal 0.0 0.0 0.0
    outer loop
      vertex 10.0 10.0 7.5
      vertex 10.0 7.634240860678117 6.009952094312408
      vertex 10.0 10.0 5.0
    endloop
  endfacet
  facet normal 0.0 0.0 0.0
    outer loop
      vertex 0.0 10.0 2.5
      vertex 2.257047743274071 10.0 3.829082621114845
      vertex 1.815079327258486 10.0 1.815079327258486
    endloop
  endfacet
  facet normal 0.0 0.0 0.0
    outer loop
      vertex 0.0 2.458077263046856 4.044890900053836
      vertex 0.0 1.362473711274849 2.837890767248463
      vertex 0.0 0.0 4.666666666666663
    endloop
  endfacet
  facet normal 0.0 0.0 0.0
    outer loop
      vertex 8.02297084415748 3.592173546155781 0.0
      vertex 8.169872981077807 1.830127018922193 0.0
      vertex 6.40797822657331 1.932036208235116 0.0
    endloop
  endfacet
  facet normal 0.0 0.0 0.0
    outer loop
      vertex 8.022970844157479 0.0 3.592173546155781
      vertex 6.40797822657331 0.0 1.932036208235116
      vertex 8.169872981077807 0.0 1.830127018922193
    endloop
  endfacet
  facet normal 0.0 0.0 0.0
    outer loop
      vertex 0.0 7.5 10.0
      vertex 1.0 5.0 10.0
      vertex 2.171572875253805 7.828427124746185 10.0
    endloop
  endfacet
  facet normal 0.0 0.0 0.0
    outer loop
      vertex 10.0 2.165063509461096 3.75
      vertex 10.0 1.459265064213862 1.484804596480834
      vertex 10.0 3.103138265074932 1.768489190752347
    endloop
  endfacet
  facet normal 0.0 0.0 0.0
    outer loop
      vertex 0.0 10.0 5.0
      vertex 0.0 10.0 2.5
      vertex 0.0 7.300697388276383 4.515650649338538
    endloop
  endfacet
  facet normal 0.0 0.0 0.0
    outer loop
      vertex 0.0 10.0 2.5
      vertex 0.0 10.0 5.0
      vertex 2.257047743274071 10.0 3.829082621114845
    endloop
  endfacet
  facet normal 0.0 0.0 0.0
    outer loop
      vertex 0.0 8.375722877688826 6.471228415117215
      vertex 0.0 8.182755056135097 8.182755056135097
      vertex 0.0 10.0 7.5
    endloop
  endfacet
  facet normal 0.0 0.0 0.0
    outer loop
      vertex 0.0 6.417826087213109 7.600193200346875
      vertex 0.0 7.5 10.0
      vertex 0.0 8.182755056135097 8.182755056135097
    endloop
  endfacet
  facet normal 0.0 0.0 0.0
    outer loop
      vertex 0.0 4.666666666666663 0.0
      vertex 0.0 2.626733843515868 1.33152691665732
      vertex 0.0 3.690315277264737 2.405530253665048
    endloop
  endfacet
  facet normal 0.0 0.0 0.0
    outer loop
      vertex 2.5 0.0 10.0
      vertex 1.727782993101749 0.0 8.23439902748124
      vertex 3.830768281804415 0.0 7.881568079780667
    endloop
  endfacet
  facet normal 0.0 0.0 0.0
    outer loop
      vertex 10.0 7.5 0.0
      vertex 10.0 8.219022194693537 1.749592066742908
      vertex 10.0 6.25 1.552901902868391
    endloop
  endfacet
  facet normal 0.0 0.0 0.0
    outer loop
      vertex 6.069708608369244 10.0 7.764715647316084
      vertex 7.5 10.0 10.0
      vertex 8.169872981077807 10.0 8.169872981077807
    endloop
  endfacet
  facet normal 0.0 0.0 0.0
    outer loop
      vertex 0.0 10.0 7.5
      vertex 1.830127018922193 10.0 8.169872981077807
      vertex 1.946445340993804 10.0 6.409766973712813
    endloop
  endfacet
  facet normal 0.0 0.0 0.0
    outer loop
      vertex 7.890759238962055 10.0 3.846687836487031
      vertex 10.0 10.0 5.0
      vertex 10.0 10.0 2.5
    endloop
  endfacet
  facet normal 0.0 0.0 0.0
    outer loop
      vertex 10.0 10.0 5.0
      vertex 10.0 7.953881872687138 3.640358958115698
      vertex 10.0 10.0 2.5
    endloop
  endfacet
  facet normal 0.0 0.0 0.0
    outer loop
      vertex 3.820195085467176 2.168690262807258 0.0
      vertex 5.0 0.0 0.0
      vertex 2.5 0.0 0.0
    endloop
  endfacet
  facet normal 0.0 0.0 0.0
    outer loop
      vertex 2.5 0.0 0.0
      vertex 5.0 0.0 0.0
      vertex 3.820195085467177 0.0 2.168690262807259
    endloop
  endfacet
  facet normal 0.0 0.0 0.0
    outer loop
      vertex 10.0 3.103138265074932 1.768489190752347
      vertex 10.0 4.796557459309014 2.917273223602596
      vertex 10.0 2.165063509461096 3.75
    endloop
  endfacet
  facet normal 0.0 0.0 0.0
    outer loop
      vertex 1.830127018922193 10.0 8.169872981077807
      vertex 2.5 10.0 10.0
      vertex 3.59190173416797 10.0 8.023234408041672
    endloop
  endfacet
  facet normal 0.0 0.0 0.0
    outer loop
      vertex 5.0 10.0 0.0
      vertex 2.5 10.0 0.0
      vertex 3.68793662599956 10.0 1.815045068964227
    endloop
  endfacet
  facet normal 0.0 0.0 0.0
    outer loop
      vertex 2.5 10.0 0.0
      vertex 5.0 10.0 0.0
      vertex 3.830768281804417 7.881568079780666 0.0
    endloop
  endfacet
  facet normal 0.0 0.0 0.0
    outer loop
      vertex 5.000000000000015 1.0 10.0
      vertex 7.5 0.0 10.0
      vertex 7.828427124746203 2.171572875253823 10.0
    endloop
  endfacet
  facet normal 0.0 0.0 0.0
    outer loop
      vertex 0.0 1.78883326201861 8.247218050166037
      vertex 0.0 2.5 10.0
      vertex 0.0 3.869147296735861 8.016113998373426
    endloop
  endfacet
  facet normal 0.0 0.0 0.0
    outer loop
      vertex 9.0 5.000000000000017 10.0
      vertex 10.0 7.5 10.0
      vertex 7.828427124746179 7.828427124746201 10.0
    endloop
  endfacet
  facet normal 0.0 0.0 0.0
    outer loop
      vertex 10.0 7.5 10.0
      vertex 10.0 6.239406576797808 7.883069887360419
      vertex 10.0 8.169872981077807 8.169872981077807
    endloop
  endfacet
  facet normal 0.0 0.0 0.0
    outer loop
      vertex 10.0 0.0 5.0
      vertex 10.0 2.125856753681781 6.329289900624124
      vertex 10.0 0.0 7.5
    endloop
  endfacet
  facet normal 0.0 0.0 0.0
    outer loop
      vertex 10.0 0.0 5.0
      vertex 10.0 0.0 7.5
      vertex 7.802150379282772 0.0 6.089017294984147
    endloop
  endfacet
  facet normal 0.0 0.0 0.0
    outer loop
      vertex 8.169872981077807 8.169872981077807 0.0
      vertex 10.0 7.5 0.0
      vertex 7.802150379282772 6.089017294984147 0.0
    endloop
  endfacet
  facet normal 0.0 0.0 0.0
    outer loop
      vertex 1.0 5.0 10.0
      vertex 0.0 2.5 10.0
      vertex 2.171572875253815 2.171572875253804 10.0
    endloop
  endfacet
  facet normal 0.0 0.0 0.0
    outer loop
      vertex 2.5 10.0 10.0
      vertex 2.171572875253805 7.828427124746185 10.0
      vertex 4.999999999999988 9.0 10.0
    endloop
  endfacet
  facet normal 0.0 0.0 0.0
    outer loop
      vertex 6.40797822657331 0.0 1.932036208235116
      vertex 5.0 0.0 0.0
      vertex 7.5 0.0 0.0
    endloop
  endfacet
  facet normal 0.0 0.0 0.0
    outer loop
      vertex 5.0 0.0 0.0
      vertex 6.40797822657331 1.932036208235116 0.0
      vertex 7.5 0.0 0.0
    endloop
  endfacet
  facet normal 0.0 0.0 0.0
    outer loop
      vertex 8.169872981077807 1.830127018922193 0.0
      vertex 10.0 0.0 0.0
      vertex 7.5 0.0 0.0
    endloop
  endfacet
  facet normal 0.0 0.0 0.0
    outer loop
      vertex 10.0 0.0 0.0
      vertex 8.169872981077807 0.0 1.830127018922193
      vertex 7.5 0.0 0.0
    endloop
  endfacet
  facet normal 0.0 0.0 0.0
    outer loop
      vertex 2.171572875253805 7.828427124746185 10.0
      vertex 2.5 10.0 10.0
      vertex 0.0 10.0 10.0
    endloop
  endfacet
  facet normal 0.0 0.0 0.0
    outer loop
      vertex 0.0 10.0 10.0
      vertex 2.5 10.0 10.0
      vertex 1.830127018922193 10.0 8.169872981077807
    endloop
  endfacet
  facet normal 0.0 0.0 0.0
    outer loop
      vertex 7.5 0.0 10.0
      vertex 10.0 0.0 10.0
      vertex 7.828427124746203 2.171572875253823 10.0
    endloop
  endfacet
  facet normal 0.0 0.0 0.0
    outer loop
      vertex 10.0 0.0 10.0
      vertex 7.5 0.0 10.0
      vertex 8.169872981077807 0.0 8.169872981077807
    endloop
  endfacet
  facet normal 0.0 0.0 0.0
    outer loop
      vertex 10.0 2.5 10.0
      vertex 7.828427124746203 2.171572875253823 10.0
      vertex 10.0 0.0 10.0
    endloop
  endfacet
  facet normal 0.0 0.0 0.0
    outer loop
      vertex 10.0 2.5 10.0
      vertex 10.0 0.0 10.0
      vertex 10.0 1.830127018922193 8.169872981077807
    endloop
  endfacet
  facet normal 0.0 0.0 0.0
    outer loop
      vertex 0.0 10.0 10.0
      vertex 0.0 7.5 10.0
      vertex 2.171572875253805 7.828427124746185 10.0
    endloop
  endfacet
  facet normal 0.0 0.0 0.0
    outer loop
      vertex 0.0 7.5 10.0
      vertex 0.0 10.0 10.0
      vertex 0.0 8.182755056135097 8.182755056135097
    endloop
  endfacet
  facet normal 0.0 0.0 0.0
    outer loop
      vertex 8.169872981077807 10.0 1.830127018922193
      vertex 10.0 10.0 2.5
      vertex 10.0 10.0 0.0
    endloop
  endfacet
  facet normal 0.0 0.0 0.0
    outer loop
      vertex 10.0 10.0 0.0
      vertex 10.0 10.0 2.5
      vertex 10.0 8.219022194693537 1.749592066742908
    endloop
  endfacet
  facet normal 0.0 0.0 0.0
    outer loop
      vertex 10.0 2.5 0.0
      vertex 8.169872981077807 1.830127018922193 0.0
      vertex 8.02297084415748 3.592173546155781 0.0
    endloop
  endfacet
  facet normal 0.0 0.0 0.0
    outer loop
      vertex 2.5 0.0 10.0
      vertex 5.000000000000015 1.0 10.0
      vertex 2.171572875253815 2.171572875253804 10.0
    endloop
  endfacet
  facet normal 0.0 0.0 0.0
    outer loop
      vertex 10.0 2.165063509461096 3.75
      vertex 10.0 0.0 5.0
      vertex 10.0 0.0 2.5
    endloop
  endfacet
  facet normal 0.0 0.0 0.0
    outer loop
      vertex 10.0 0.0 5.0
      vertex 8.022970844157479 0.0 3.592173546155781
      vertex 10.0 0.0 2.5
    endloop
  endfacet
  facet normal 0.0 0.0 0.0
    outer loop
      vertex 7.5 10.0 10.0
      vertex 4.999999999999988 9.0 10.0
      vertex 7.828427124746179 7.828427124746201 10.0
    endloop
  endfacet
  facet normal 0.0 0.0 0.0
    outer loop
      vertex 10.0 10.0 0.0
      vertex 10.0 8.219022194693537 1.749592066742908
      vertex 10.0 7.5 0.0
    endloop
  endfacet
  facet normal 0.0 0.0 0.0
    outer loop
      vertex 8.169872981077807 8.169872981077807 0.0
      vertex 10.0 10.0 0.0
      vertex 10.0 7.5 0.0
    endloop
  endfacet
  facet normal 0.0 0.0 0.0
    outer loop
      vertex 10.0 1.459265064213862 1.484804596480834
      vertex 10.0 2.5 0.0
      vertex 10.0 3.103138265074932 1.768489190752347
    endloop
  endfacet
  facet normal 0.0 0.0 0.0
    outer loop
      vertex 8.169872981077807 10.0 1.830127018922193
      vertex 10.0 10.0 0.0
      vertex 7.5 10.0 0.0
    endloop
  endfacet
  facet normal 0.0 0.0 0.0
    outer loop
      vertex 10.0 10.0 0.0
      vertex 8.169872981077807 8.169872981077807 0.0
      vertex 7.5 10.0 0.0
    endloop
  endfacet
  facet normal 0.0 0.0 0.0
    outer loop
      vertex 0.0 8.022268757099686 1.937357770204776
      vertex 0.0 10.0 0.0
      vertex 0.0 7.333333333333323 0.0
    endloop
  endfacet
  facet normal 0.0 0.0 0.0
    outer loop
      vertex 0.0 10.0 0.0
      vertex 1.727782993101749 8.23439902748124 0.0
      vertex 0.0 7.333333333333323 0.0
    endloop
  endfacet
  facet normal 0.0 0.0 0.0
    outer loop
      vertex 8.02297084415748 3.592173546155781 0.0
      vertex 10.0 5.0 0.0
      vertex 10.0 2.5 0.0
    endloop
  endfacet
  facet normal 0.0 0.0 0.0
    outer loop
      vertex 10.0 2.5 0.0
      vertex 10.0 5.0 0.0
      vertex 10.0 3.103138265074932 1.768489190752347
    endloop
  endfacet
  facet normal 0.0 0.0 0.0
    outer loop
      vertex 2.5 10.0 0.0
      vertex 0.0 10.0 0.0
      vertex 1.815079327258486 10.0 1.815079327258486
    endloop
  endfacet
  facet normal 0.0 0.0 0.0
    outer loop
      vertex 0.0 10.0 0.0
      vertex 2.5 10.0 0.0
      vertex 1.727782993101749 8.23439902748124 0.0
    endloop
  endfacet
  facet normal 0.0 0.0 0.0
    outer loop
      vertex 10.0 6.239406576797808 7.883069887360419
      vertex 10.0 5.0 10.0
      vertex 10.0 3.759949993707402 7.885993441589132
    endloop
  endfacet
  facet normal 0.0 0.0 0.0
    outer loop
      vertex 0.0 8.375722877688826 6.471228415117215
      vertex 0.0 10.0 7.5
      vertex 0.0 10.0 5.0
    endloop
  endfacet
  facet normal 0.0 0.0 0.0
    outer loop
      vertex 0.0 10.0 7.5
      vertex 1.946445340993804 10.0 6.409766973712813
      vertex 0.0 10.0 5.0
    endloop
  endfacet
  facet normal 0.0 0.0 0.0
    outer loop
      vertex 9.0 5.000000000000017 10.0
      vertex 10.0 5.0 10.0
      vertex 10.0 7.5 10.0
    endloop
  endfacet
  facet normal 0.0 0.0 0.0
    outer loop
      vertex 10.0 7.5 10.0
      vertex 10.0 5.0 10.0
      vertex 10.0 6.239406576797808 7.883069887360419
    endloop
  endfacet
  facet normal 0.0 0.0 0.0
    outer loop
      vertex 10.0 5.0 10.0
      vertex 9.0 5.000000000000017 10.0
      vertex 10.0 2.5 10.0
    endloop
  endfacet
  facet normal 0.0 0.0 0.0
    outer loop
      vertex 10.0 5.0 10.0
      vertex 10.0 2.5 10.0
      vertex 10.0 3.759949993707402 7.885993441589132
    endloop
  endfacet
  facet normal 0.0 0.0 0.0
    outer loop
      vertex 8.169872981077807 1.830127018922193 0.0
      vertex 10.0 2.5 0.0
      vertex 10.0 0.0 0.0
    endloop
  endfacet
  facet normal 0.0 0.0 0.0
    outer loop
      vertex 10.0 0.0 0.0
      vertex 10.0 2.5 0.0
      vertex 10.0 1.459265064213862 1.484804596480834
    endloop
  endfacet
  facet normal 0.0 0.0 0.0
    outer loop
      vertex 1.690362019580621 0.0 1.557184327624609
      vertex 0.0 0.0 0.0
      vertex 2.5 0.0 0.0
    endloop
  endfacet
  facet normal 0.0 0.0 0.0
    outer loop
      vertex 0.0 0.0 0.0
      vertex 1.69036201958062 1.557184327624609 0.0
      vertex 2.5 0.0 0.0
    endloop
  endfacet
  facet normal 0.0 0.0 0.0
    outer loop
      vertex 0.0 8.182755056135097 8.182755056135097
      vertex 0.0 10.0 10.0
      vertex 0.0 10.0 7.5
    endloop
  endfacet
  facet normal 0.0 0.0 0.0
    outer loop
      vertex 0.0 10.0 7.5
      vertex 0.0 10.0 10.0
      vertex 1.830127018922193 10.0 8.169872981077807
    endloop
  endfacet
  facet normal 0.0 0.0 0.0
    outer loop
      vertex 10.0 0.0 2.5
      vertex 10.0 0.0 0.0
      vertex 10.0 1.459265064213862 1.484804596480834
    endloop
  endfacet
  facet normal 0.0 0.0 0.0
    outer loop
      vertex 10.0 0.0 0.0
      vertex 10.0 0.0 2.5
      vertex 8.169872981077807 0.0 1.830127018922193
    endloop
  endfacet
  facet normal 0.0 0.0 0.0
    outer loop
      vertex 10.0 1.830127018922193 8.169872981077807
      vertex 10.0 0.0 10.0
      vertex 10.0 0.0 7.5
    endloop
  endfacet
  facet normal 0.0 0.0 0.0
    outer loop
      vertex 10.0 0.0 10.0
      vertex 8.169872981077807 0.0 8.169872981077807
      vertex 10.0 0.0 7.5
    endloop
  endfacet
  facet normal 0.0 0.0 0.0
    outer loop
      vertex 10.0 7.5 10.0
      vertex 10.0 10.0 10.0
      vertex 7.828427124746179 7.828427124746201 10.0
    endloop
  endfacet
  facet normal 0.0 0.0 0.0
    outer loop
      vertex 10.0 10.0 10.0
      vertex 10.0 7.5 10.0
      vertex 10.0 8.169872981077807 8.169872981077807
    endloop
  endfacet
  facet normal 0.0 0.0 0.0
    outer loop
      vertex 10.0 10.0 10.0
      vertex 7.5 10.0 10.0
      vertex 7.828427124746179 7.828427124746201 10.0
    endloop
  endfacet
  facet normal 0.0 0.0 0.0
    outer loop
      vertex 7.5 10.0 10.0
      vertex 10.0 10.0 10.0
      vertex 8.169872981077807 10.0 8.169872981077807
    endloop
  endfacet
  facet normal 0.0 0.0 0.0
    outer loop
      vertex 0.0 7.5 10.0
      vertex 0.0 5.0 10.0
      vertex 1.0 5.0 10.0
    endloop
  endfacet
  facet normal 0.0 0.0 0.0
    outer loop
      vertex 0.0 5.0 10.0
      vertex 0.0 7.5 10.0
      vertex 0.0 6.417826087213109 7.600193200346875
    endloop
  endfacet
  facet normal 0.0 0.0 0.0
    outer loop
      vertex 2.5 0.0 10.0
      vertex 2.171572875253815 2.171572875253804 10.0
      vertex 0.0 0.0 10.0
    endloop
  endfacet
  facet normal 0.0 0.0 0.0
    outer loop
      vertex 2.5 0.0 10.0
      vertex 0.0 0.0 10.0
      vertex 1.727782993101749 0.0 8.23439902748124
    endloop
  endfacet
  facet normal 0.0 0.0 0.0
    outer loop
      vertex 0.0 1.78883326201861 8.247218050166037
      vertex 0.0 0.0 10.0
      vertex 0.0 2.5 10.0
    endloop
  endfacet
  facet normal 0.0 0.0 0.0
    outer loop
      vertex 0.0 0.0 10.0
      vertex 2.171572875253815 2.171572875253804 10.0
      vertex 0.0 2.5 10.0
    endloop
  endfacet
  facet normal 0.0 0.0 0.0
    outer loop
      vertex 0.0 2.626733843515868 1.33152691665732
      vertex 0.0 4.666666666666663 0.0
      vertex 8.738726566723565e-31 2.0 -3.935572570959445e-15
    endloop
  endfacet
  facet normal 0.0 0.0 0.0
    outer loop
      vertex 8.738726566723565e-31 2.0 -3.935572570959445e-15
      vertex 0.0 4.666666666666663 0.0
      vertex 1.854435004438947 3.366401824458178 0.0
    endloop
  endfacet
  facet normal 0.0 0.0 0.0
    outer loop
      vertex 10.0 10.0 10.0
      vertex 10.0 10.0 7.5
      vertex 8.169872981077807 10.0 8.169872981077807
    endloop
  endfacet
  facet normal 0.0 0.0 0.0
    outer loop
      vertex 10.0 10.0 7.5
      vertex 10.0 10.0 10.0
      vertex 10.0 8.169872981077807 8.169872981077807
    endloop
  endfacet
  facet normal 0.0 0.0 0.0
    outer loop
      vertex 0.0 5.0 10.0
      vertex 0.0 6.417826087213109 7.600193200346875
      vertex 0.0 3.869147296735861 8.016113998373426
    endloop
  endfacet
  facet normal 0.0 0.0 0.0
    outer loop
      vertex 0.0 10.0 2.5
      vertex 0.0 10.0 0.0
      vertex 0.0 8.022268757099686 1.937357770204776
    endloop
  endfacet
  facet normal 0.0 0.0 0.0
    outer loop
      vertex 0.0 10.0 0.0
      vertex 0.0 10.0 2.5
      vertex 1.815079327258486 10.0 1.815079327258486
    endloop
  endfacet
  facet normal 0.0 0.0 0.0
    outer loop
      vertex 7.802150379282772 6.089017294984147 0.0
      vertex 10.0 7.5 0.0
      vertex 10.0 5.0 0.0
    endloop
  endfacet
  facet normal 0.0 0.0 0.0
    outer loop
      vertex 10.0 7.5 0.0
      vertex 10.0 6.25 1.552901902868391
      vertex 10.0 5.0 0.0
    endloop
  endfacet
  facet normal 0.0 0.0 0.0
    outer loop
      vertex 0.0 0.0 10.0
      vertex 0.0 1.78883326201861 8.247218050166037
      vertex 0.0 0.0 7.333333333333323
    endloop
  endfacet
  facet normal 0.0 0.0 0.0
    outer loop
      vertex 0.0 0.0 10.0
      vertex 0.0 0.0 7.333333333333323
      vertex 1.727782993101749 0.0 8.23439902748124
    endloop
  endfacet
  facet normal 0.0 0.0 0.0
    outer loop
      vertex 5.0 0.0 10.0
      vertex 3.830768281804415 0.0 7.881568079780667
      vertex 6.244207341961609 0.0 7.886120274327771
    endloop
  endfacet
  facet normal 0.0 0.0 0.0
    outer loop
      vertex 0.0 1.362473711274849 2.837890767248463
      vertex -4.440892098501e-16 -4.898587196589e-16 2.0
      vertex 0.0 0.0 4.666666666666663
    endloop
  endfacet
  facet normal 0.0 0.0 0.0
    outer loop
      vertex 0.0 0.0 4.666666666666663
      vertex -4.440892098501e-16 -4.898587196589e-16 2.0
      vertex 1.854435004438947 0.0 3.366401824458178
    endloop
  endfacet
  facet normal 0.0 0.0 0.0
    outer loop
      vertex 7.5 0.0 10.0
      vertex 5.000000000000015 1.0 10.0
      vertex 5.0 0.0 10.0
    endloop
  endfacet
  facet normal 0.0 0.0 0.0
    outer loop
      vertex 7.5 0.0 10.0
      vertex 5.0 0.0 10.0
      vertex 6.244207341961609 0.0 7.886120274327771
    endloop
  endfacet
  facet normal 0.0 0.0 0.0
    outer loop
      vertex 5.0 10.0 10.0
      vertex 4.999999999999988 9.0 10.0
      vertex 7.5 10.0 10.0
    endloop
  endfacet
  facet normal 0.0 0.0 0.0
    outer loop
      vertex 5.0 10.0 10.0
      vertex 7.5 10.0 10.0
      vertex 6.069708608369244 10.0 7.764715647316084
    endloop
  endfacet
  facet normal 0.0 0.0 0.0
    outer loop
      vertex 5.0 0.0 10.0
      vertex 5.000000000000015 1.0 10.0
      vertex 2.5 0.0 10.0
    endloop
  endfacet
  facet normal 0.0 0.0 0.0
    outer loop
      vertex 5.0 0.0 10.0
      vertex 2.5 0.0 10.0
      vertex 3.830768281804415 0.0 7.881568079780667
    endloop
  endfacet
  facet normal 0.0 0.0 0.0
    outer loop
      vertex 0.0 2.5 10.0
      vertex 1.0 5.0 10.0
      vertex 0.0 5.0 10.0
    endloop
  endfacet
  facet normal 0.0 0.0 0.0
    outer loop
      vertex 0.0 2.5 10.0
      vertex 0.0 5.0 10.0
      vertex 0.0 3.869147296735861 8.016113998373426
    endloop
  endfacet
  facet normal 0.0 0.0 0.0
    outer loop
      vertex -4.440892098501e-16 -4.898587196589e-16 2.0
      vertex 1.690362019580621 0.0 1.557184327624609
      vertex 1.854435004438947 0.0 3.366401824458178
    endloop
  endfacet
  facet normal 0.0 0.0 0.0
    outer loop
      vertex 3.59190173416797 10.0 8.023234408041672
      vertex 5.0 10.0 10.0
      vertex 6.069708608369244 10.0 7.764715647316084
    endloop
  endfacet
  facet normal 0.0 0.0 0.0
    outer loop
      vertex 8.738726566723565e-31 2.0 -3.935572570959445e-15
      vertex 1.854435004438947 3.366401824458178 0.0
      vertex 1.69036201958062 1.557184327624609 0.0
    endloop
  endfacet
  facet normal 0.0 0.0 0.0
    outer loop
      vertex 2.5 10.0 10.0
      vertex 4.999999999999988 9.0 10.0
      vertex 5.0 10.0 10.0
    endloop
  endfacet
  facet normal 0.0 0.0 0.0
    outer loop
      vertex 2.5 10.0 10.0
      vertex 5.0 10.0 10.0
      vertex 3.59190173416797 10.0 8.023234408041672
    endloop
  endfacet
  facet normal 0.0 0.0 0.0
    outer loop
      vertex -3.140184917367108e-16 1.414213562373095 1.414213562373095
      vertex -4.440892098501e-16 -4.898587196589e-16 2.0
      vertex 0.0 1.362473711274849 2.837890767248463
    endloop
  endfacet
  facet normal 0.0 0.0 0.0
    outer loop
      vertex -4.440892098501e-16 -4.898587196589e-16 2.0
      vertex 0.0 0.0 0.0
      vertex 1.690362019580621 0.0 1.557184327624609
    endloop
  endfacet
  facet normal 0.0 0.0 0.0
    outer loop
      vertex 1.69036201958062 1.557184327624609 0.0
      vertex 0.0 0.0 0.0
      vertex 8.738726566723565e-31 2.0 -3.935572570959445e-15
    endloop
  endfacet
  facet normal 0.0 0.0 0.0
    outer loop
      vertex 0.0 2.626733843515868 1.33152691665732
      vertex 8.738726566723565e-31 2.0 -3.935572570959445e-15
      vertex -3.140184917367108e-16 1.414213562373095 1.414213562373095
    endloop
  endfacet
  facet normal 0.0 0.0 0.0
    outer loop
      vertex 8.169872981077807 0.0 1.830127018922193
      vertex 10.0 0.0 2.5
      vertex 8.022970844157479 0.0 3.592173546155781
    endloop
  endfacet
  facet normal 0.0 0.0 0.0
    outer loop
      vertex 10.0 2.165063509461096 3.75
      vertex 10.0 0.0 2.5
      vertex 10.0 1.459265064213862 1.484804596480834
    endloop
  endfacet
  facet normal 0.0 0.0 0.0
    outer loop
      vertex -2.93159169815672 -1.963870897141412 -0.3784324237707271
      vertex -3.076540130288461 -1.132999684743313 -1.648123695106515
      vertex -1.559165088543286 -1.44962122127025 -1.377896336755037
    endloop
  endfacet
  facet normal 0.0 0.0 0.0
    outer loop
      vertex -1.559165088543286 -1.44962122127025 -1.377896336755037
      vertex -3.076540130288461 -1.132999684743313 -1.648123695106515
      vertex -1.810247392170402 0.2907768059210593 -1.978749314374701
    endloop
  endfacet
  facet normal 0.0 0.0 0.0
    outer loop
      vertex -2.93159169815672 -1.963870897141412 -0.3784324237707271
      vertex -1.559165088543286 -1.44962122127025 -1.377896336755037
      vertex -1.521316767631104 -1.97550967487015 0.3120280828618405
    endloop
  endfacet
  facet normal 0.0 0.0 0.0
    outer loop
      vertex -1.829632461507808 1.945673131766608 0.4629860303740494
      vertex -1.290253617985654 1.740149879328613 -0.9858389307958048
      vertex -3.079732938701915 1.700010523567898 -1.053548394597231
    endloop
  endfacet
  facet normal 0.0 0.0 0.0
    outer loop
      vertex -1.290253617985654 1.740149879328613 -0.9858389307958048
      vertex -1.810247392170402 0.2907768059210593 -1.978749314374701
      vertex -3.079732938701915 1.700010523567898 -1.053548394597231
    endloop
  endfacet
  facet normal 0.0 0.0 0.0
    outer loop
      vertex -7.120899969760331 -1.835935964943559 -0.7933089767718287
      vertex -5.059816434689203 -1.670350545945776 -1.099967751190303
      vertex -6.250000000000001 -1.820496905893707 0.8281250000038863
    endloop
  endfacet
  facet normal 0.0 0.0 0.0
    outer loop
      vertex -3.076540130288461 -1.132999684743313 -1.648123695106515
      vertex -5.059816434689203 -1.670350545945776 -1.099967751190303
      vertex -4.101754202628595 0.1421788769331434 -1.994939890561626
    endloop
  endfacet
  facet normal 0.0 0.0 0.0
    outer loop
      vertex -5.95177460224458 0.4169967008112047 -1.956045436975475
      vertex -7.433071449815358 0.7304328270324032 -1.861845290348652
      vertex -6.986265533693065 1.781311974237823 -0.9093556237451621
    endloop
  endfacet
  facet normal 0.0 0.0 0.0
    outer loop
      vertex -6.986265533693065 1.781311974237823 -0.9093556237451621
      vertex -6.444409059324685 1.721850225076523 1.017463415757011
      vertex -5.064817328044294 1.723728156398205 -1.014278681053707
    endloop
  endfacet
  facet normal 0.0 0.0 0.0
    outer loop
      vertex -5.95177460224458 0.4169967008112047 -1.956045436975475
      vertex -6.986265533693065 1.781311974237823 -0.9093556237451621
      vertex -5.064817328044294 1.723728156398205 -1.014278681053707
    endloop
  endfacet
  facet normal 0.0 0.0 0.0
    outer loop
      vertex -5.95177460224458 0.4169967008112047 -1.956045436975475
      vertex -4.101754202628595 0.1421788769331434 -1.994939890561626
      vertex -5.059816434689203 -1.670350545945776 -1.099967751190303
    endloop
  endfacet
  facet normal 0.0 0.0 0.0
    outer loop
      vertex -4.101754202628595 0.1421788769331434 -1.994939890561626
      vertex -5.95177460224458 0.4169967008112047 -1.956045436975475
      vertex -5.064817328044294 1.723728156398205 -1.014278681053707
    endloop
  endfacet
  facet normal 0.0 0.0 0.0
    outer loop
      vertex -3.866701167564825 1.816235888589097 0.8374289205663797
      vertex -3.079732938701915 1.700010523567898 -1.053548394597231
      vertex -5.064817328044294 1.723728156398205 -1.014278681053707
    endloop
  endfacet
  facet normal 0.0 0.0 0.0
    outer loop
      vertex -3.079732938701915 1.700010523567898 -1.053548394597231
      vertex -4.101754202628595 0.1421788769331434 -1.994939890561626
      vertex -5.064817328044294 1.723728156398205 -1.014278681053707
    endloop
  endfacet
  facet normal 0.0 0.0 0.0
    outer loop
      vertex -2.5 -4.898587196589e-16 2.0
      vertex -1.829632461507808 1.945673131766608 0.4629860303740494
      vertex -3.866701167564825 1.816235888589097 0.8374289205663797
    endloop
  endfacet
  facet normal 0.0 0.0 0.0
    outer loop
      vertex -1.829632461507808 1.945673131766608 0.4629860303740494
      vertex -3.079732938701915 1.700010523567898 -1.053548394597231
      vertex -3.866701167564825 1.816235888589097 0.8374289205663797
    endloop
  endfacet
  facet normal 0.0 0.0 0.0
    outer loop
      vertex -3.853262075253665 -1.790347587198855 0.8914345276077412
      vertex -6.250000000000001 -1.820496905893707 0.8281250000038863
      vertex -5.059816434689203 -1.670350545945776 -1.099967751190303
    endloop
  endfacet
  facet normal 0.0 0.0 0.0
    outer loop
      vertex -6.250000000000001 -1.820496905893707 0.8281250000038863
      vertex -3.853262075253665 -1.790347587198855 0.8914345276077412
      vertex -5.000000000000001 -4.898587196589e-16 1.999999999999999
    endloop
  endfacet
  facet normal 0.0 0.0 0.0
    outer loop
      vertex -5.000000000000001 -4.898587196589e-16 1.999999999999999
      vertex -7.500000000000001 -4.898587196589e-16 1.999999999999998
      vertex -6.250000000000001 -1.820496905893707 0.8281250000038863
    endloop
  endfacet
  facet normal 0.0 0.0 0.0
    outer loop
      vertex -7.500000000000001 -4.898587196589e-16 1.999999999999998
      vertex -5.000000000000001 -4.898587196589e-16 1.999999999999999
      vertex -6.444409059324685 1.721850225076523 1.017463415757011
    endloop
  endfacet
  facet normal 0.0 0.0 0.0
    outer loop
      vertex -2.93159169815672 -1.963870897141412 -0.3784324237707271
      vertex -5.059816434689203 -1.670350545945776 -1.099967751190303
      vertex -3.076540130288461 -1.132999684743313 -1.648123695106515
    endloop
  endfacet
  facet normal 0.0 0.0 0.0
    outer loop
      vertex -5.059816434689203 -1.670350545945776 -1.099967751190303
      vertex -2.93159169815672 -1.963870897141412 -0.3784324237707271
      vertex -3.853262075253665 -1.790347587198855 0.8914345276077412
    endloop
  endfacet
  facet normal 0.0 0.0 0.0
    outer loop
      vertex -8.65628600393315 0.0548595512123858 -1.999247465833278
      vertex -10.0 0.8677674782351237 -1.801937735804837
      vertex -8.59723978240842 1.493209206533948 -1.330536082006896
    endloop
  endfacet
  facet normal 0.0 0.0 0.0
    outer loop
      vertex -8.65628600393315 0.0548595512123858 -1.999247465833278
      vertex -8.596548802172027 -1.44371832849633 -1.384079978889865
      vertex -10.0 -0.867767478235108 -1.801937735804844
    endloop
  endfacet
  facet normal 0.0 0.0 0.0
    outer loop
      vertex -6.444409059324685 1.721850225076523 1.017463415757011
      vertex -5.000000000000001 -4.898587196589e-16 1.999999999999999
      vertex -3.866701167564825 1.816235888589097 0.8374289205663797
    endloop
  endfacet
  facet normal 0.0 0.0 0.0
    outer loop
      vertex -6.444409059324685 1.721850225076523 1.017463415757011
      vertex -3.866701167564825 1.816235888589097 0.8374289205663797
      vertex -5.064817328044294 1.723728156398205 -1.014278681053707
    endloop
  endfacet
  facet normal 0.0 0.0 0.0
    outer loop
      vertex -5.95177460224458 0.4169967008112047 -1.956045436975475
      vertex -7.193524729210767 -0.6640844460752318 -1.886529047876273
      vertex -7.433071449815358 0.7304328270324032 -1.861845290348652
    endloop
  endfacet
  facet normal 0.0 0.0 0.0
    outer loop
      vertex -7.120899969760331 -1.835935964943559 -0.7933089767718287
      vertex -7.193524729210767 -0.6640844460752318 -1.886529047876273
      vertex -5.059816434689203 -1.670350545945776 -1.099967751190303
    endloop
  endfacet
  facet normal 0.0 0.0 0.0
    outer loop
      vertex -5.059816434689203 -1.670350545945776 -1.099967751190303
      vertex -7.193524729210767 -0.6640844460752318 -1.886529047876273
      vertex -5.95177460224458 0.4169967008112047 -1.956045436975475
    endloop
  endfacet
  facet normal 0.0 0.0 0.0
    outer loop
      vertex -2.5 -4.898587196589e-16 2.0
      vertex -5.000000000000001 -4.898587196589e-16 1.999999999999999
      vertex -3.853262075253665 -1.790347587198855 0.8914345276077412
    endloop
  endfacet
  facet normal 0.0 0.0 0.0
    outer loop
      vertex -5.000000000000001 -4.898587196589e-16 1.999999999999999
      vertex -2.5 -4.898587196589e-16 2.0
      vertex -3.866701167564825 1.816235888589097 0.8374289205663797
    endloop
  endfacet
  facet normal 0.0 0.0 0.0
    outer loop
      vertex -1.810247392170402 0.2907768059210593 -1.978749314374701
      vertex -3.076540130288461 -1.132999684743313 -1.648123695106515
      vertex -4.101754202628595 0.1421788769331434 -1.994939890561626
    endloop
  endfacet
  facet normal 0.0 0.0 0.0
    outer loop
      vertex -1.810247392170402 0.2907768059210593 -1.978749314374701
      vertex -4.101754202628595 0.1421788769331434 -1.994939890561626
      vertex -3.079732938701915 1.700010523567898 -1.053548394597231
    endloop
  endfacet
  facet normal 0.0 0.0 0.0
    outer loop
      vertex -10.0 1.949855824363649 -0.445041867912624
      vertex -8.480220602988696 1.978597330547337 0.2918091903126924
      vertex -8.59723978240842 1.493209206533948 -1.330536082006896
    endloop
  endfacet
  facet normal 0.0 0.0 0.0
    outer loop
      vertex -10.0 -1.949855824363645 -0.4450418679126396
      vertex -8.596548802172027 -1.44371832849633 -1.384079978889865
      vertex -8.513990895355779 -1.98621552427164 0.2344096652067315
    endloop
  endfacet
  facet normal 0.0 0.0 0.0
    outer loop
      vertex -1.559165088543286 -1.44962122127025 -1.377896336755037
      vertex -1.810247392170402 0.2907768059210593 -1.978749314374701
      vertex 4.22353936844208e-16 -0.6180339887499005 -1.902113032590305
    endloop
  endfacet
  facet normal 0.0 0.0 0.0
    outer loop
      vertex -7.433071449815358 0.7304328270324032 -1.861845290348652
      vertex -8.65628600393315 0.0548595512123858 -1.999247465833278
      vertex -8.59723978240842 1.493209206533948 -1.330536082006896
    endloop
  endfacet
  facet normal 0.0 0.0 0.0
    outer loop
      vertex -8.59723978240842 1.493209206533948 -1.330536082006896
      vertex -6.986265533693065 1.781311974237823 -0.9093556237451621
      vertex -7.433071449815358 0.7304328270324032 -1.861845290348652
    endloop
  endfacet
  facet normal 0.0 0.0 0.0
    outer loop
      vertex -10.0 1.949855824363649 -0.445041867912624
      vertex -10.0 0.8677674782351237 -1.801937735804837
      vertex -10.0 1.808077497246683e-15 -2.347328680635795e-15
    endloop
  endfacet
  facet normal 0.0 0.0 0.0
    outer loop
      vertex -10.0 0.8677674782351237 -1.801937735804837
      vertex -10.0 1.949855824363649 -0.445041867912624
      vertex -8.59723978240842 1.493209206533948 -1.330536082006896
    endloop
  endfacet
  facet normal 0.0 0.0 0.0
    outer loop
      vertex -8.65628600393315 0.0548595512123858 -1.999247465833278
      vertex -10.0 -0.867767478235108 -1.801937735804844
      vertex -10.0 0.8677674782351237 -1.801937735804837
    endloop
  endfacet
  facet normal 0.0 0.0 0.0
    outer loop
      vertex -10.0 0.8677674782351237 -1.801937735804837
      vertex -10.0 -0.867767478235108 -1.801937735804844
      vertex -10.0 1.808077497246683e-15 -2.347328680635795e-15
    endloop
  endfacet
  facet normal 0.0 0.0 0.0
    outer loop
      vertex -10.0 -0.867767478235108 -1.801937735804844
      vertex -8.596548802172027 -1.44371832849633 -1.384079978889865
      vertex -10.0 -1.949855824363645 -0.4450418679126396
    endloop
  endfacet
  facet normal 0.0 0.0 0.0
    outer loop
      vertex -10.0 -0.867767478235108 -1.801937735804844
      vertex -10.0 -1.949855824363645 -0.4450418679126396
      vertex -10.0 1.808077497246683e-15 -2.347328680635795e-15
    endloop
  endfacet
  facet normal 0.0 0.0 0.0
    outer loop
      vertex 3.592757177871931e-16 1.175570504584941 -1.618033988749898
      vertex -1.810247392170402 0.2907768059210593 -1.978749314374701
      vertex -1.290253617985654 1.740149879328613 -0.9858389307958048
    endloop
  endfacet
  facet normal 0.0 0.0 0.0
    outer loop
      vertex -6.250000000000001 -1.820496905893707 0.8281250000038863
      vertex -8.513990895355779 -1.98621552427164 0.2344096652067315
      vertex -7.120899969760331 -1.835935964943559 -0.7933089767718287
    endloop
  endfacet
  facet normal 0.0 0.0 0.0
    outer loop
      vertex -8.480220602988696 1.978597330547337 0.2918091903126924
      vertex -6.444409059324685 1.721850225076523 1.017463415757011
      vertex -6.986265533693065 1.781311974237823 -0.9093556237451621
    endloop
  endfacet
  facet normal 0.0 0.0 0.0
    outer loop
      vertex -10.0 1.949855824363649 -0.445041867912624
      vertex -10.0 1.808077497246683e-15 -2.347328680635795e-15
      vertex -10.0 1.563662964936057 1.246979603717468
    endloop
  endfacet
  facet normal 0.0 0.0 0.0
    outer loop
      vertex -10.0 1.949855824363649 -0.445041867912624
      vertex -10.0 1.563662964936057 1.246979603717468
      vertex -8.480220602988696 1.978597330547337 0.2918091903126924
    endloop
  endfacet
  facet normal 0.0 0.0 0.0
    outer loop
      vertex -8.59723978240842 1.493209206533948 -1.330536082006896
      vertex -8.480220602988696 1.978597330547337 0.2918091903126924
      vertex -6.986265533693065 1.781311974237823 -0.9093556237451621
    endloop
  endfacet
  facet normal 0.0 0.0 0.0
    outer loop
      vertex -1.559165088543286 -1.44962122127025 -1.377896336755037
      vertex 1.372311128621909e-16 -1.902113032590309 -0.6180339887498885
      vertex -1.521316767631104 -1.97550967487015 0.3120280828618405
    endloop
  endfacet
  facet normal 0.0 0.0 0.0
    outer loop
      vertex -1.810247392170402 0.2907768059210593 -1.978749314374701
      vertex 3.592757177871931e-16 1.175570504584941 -1.618033988749898
      vertex 4.22353936844208e-16 -0.6180339887499005 -1.902113032590305
    endloop
  endfacet
  facet normal 0.0 0.0 0.0
    outer loop
      vertex 3.592757177871931e-16 1.175570504584941 -1.618033988749898
      vertex 0.0 0.0 0.0
      vertex 4.22353936844208e-16 -0.6180339887499005 -1.902113032590305
    endloop
  endfacet
  facet normal 0.0 0.0 0.0
    outer loop
      vertex 0.0 0.0 0.0
      vertex 1.372311128621909e-16 -1.902113032590309 -0.6180339887498885
      vertex 4.22353936844208e-16 -0.6180339887499005 -1.902113032590305
    endloop
  endfacet
  facet normal 0.0 0.0 0.0
    outer loop
      vertex 1.372311128621909e-16 -1.902113032590309 -0.6180339887498885
      vertex -1.559165088543286 -1.44962122127025 -1.377896336755037
      vertex 4.22353936844208e-16 -0.6180339887499005 -1.902113032590305
    endloop
  endfacet
  facet normal 0.0 0.0 0.0
    outer loop
      vertex -10.0 1.563662964936057 1.246979603717468
      vertex -8.634764670041418 1.140280992766051 1.643094415283693
      vertex -8.480220602988696 1.978597330547337 0.2918091903126924
    endloop
  endfacet
  facet normal 0.0 0.0 0.0
    outer loop
      vertex -6.250000000000001 -1.820496905893707 0.8281250000038863
      vertex -7.500000000000001 -4.898587196589e-16 1.999999999999998
      vertex -8.562852875166369 -1.273722031583944 1.541957258246046
    endloop
  endfacet
  facet normal 0.0 0.0 0.0
    outer loop
      vertex -6.250000000000001 -1.820496905893707 0.8281250000038863
      vertex -8.562852875166369 -1.273722031583944 1.541957258246046
      vertex -8.513990895355779 -1.98621552427164 0.2344096652067315
    endloop
  endfacet
  facet normal 0.0 0.0 0.0
    outer loop
      vertex -8.634764670041418 1.140280992766051 1.643094415283693
      vertex -6.444409059324685 1.721850225076523 1.017463415757011
      vertex -8.480220602988696 1.978597330547337 0.2918091903126924
    endloop
  endfacet
  facet normal 0.0 0.0 0.0
    outer loop
      vertex -1.829632461507808 1.945673131766608 0.4629860303740494
      vertex -2.5 -4.898587196589e-16 2.0
      vertex -3.140184917367108e-16 1.414213562373095 1.414213562373095
    endloop
  endfacet
  facet normal 0.0 0.0 0.0
    outer loop
      vertex -1.455111710265223 -1.268363613091511 1.546367920316975
      vertex -4.440892098501e-16 -4.898587196589e-16 2.0
      vertex -2.5 -4.898587196589e-16 2.0
    endloop
  endfacet
  facet normal 0.0 0.0 0.0
    outer loop
      vertex -10.0 -1.949855824363645 -0.4450418679126396
      vertex -8.513990895355779 -1.98621552427164 0.2344096652067315
      vertex -10.0 -1.563662964936063 1.246979603717461
    endloop
  endfacet
  facet normal 0.0 0.0 0.0
    outer loop
      vertex -10.0 1.808077497246683e-15 -2.347328680635795e-15
      vertex -10.0 -1.949855824363645 -0.4450418679126396
      vertex -10.0 -1.563662964936063 1.246979603717461
    endloop
  endfacet
  facet normal 0.0 0.0 0.0
    outer loop
      vertex -2.5 -4.898587196589e-16 2.0
      vertex -4.440892098501e-16 -4.898587196589e-16 2.0
      vertex -3.140184917367108e-16 1.414213562373095 1.414213562373095
    endloop
  endfacet
  facet normal 0.0 0.0 0.0
    outer loop
      vertex -8.634764670041418 1.140280992766051 1.643094415283693
      vertex -7.500000000000001 -4.898587196589e-16 1.999999999999998
      vertex -6.444409059324685 1.721850225076523 1.017463415757011
    endloop
  endfacet
  facet normal 0.0 0.0 0.0
    outer loop
      vertex -8.513990895355779 -1.98621552427164 0.2344096652067315
      vertex -8.562852875166369 -1.273722031583944 1.541957258246046
      vertex -10.0 -1.563662964936063 1.246979603717461
    endloop
  endfacet
  facet normal 0.0 0.0 0.0
    outer loop
      vertex -7.433071449815358 0.7304328270324032 -1.861845290348652
      vertex -7.193524729210767 -0.6640844460752318 -1.886529047876273
      vertex -8.65628600393315 0.0548595512123858 -1.999247465833278
    endloop
  endfacet
  facet normal 0.0 0.0 0.0
    outer loop
      vertex -7.193524729210767 -0.6640844460752318 -1.886529047876273
      vertex -8.596548802172027 -1.44371832849633 -1.384079978889865
      vertex -8.65628600393315 0.0548595512123858 -1.999247465833278
    endloop
  endfacet
  facet normal 0.0 0.0 0.0
    outer loop
      vertex 1.372311128621909e-16 -1.902113032590309 -0.6180339887498885
      vertex 0.0 0.0 0.0
      vertex -2.610290882520479e-16 -1.618033988749893 1.175570504584949
    endloop
  endfacet
  facet normal 0.0 0.0 0.0
    outer loop
      vertex 1.372311128621909e-16 -1.902113032590309 -0.6180339887498885
      vertex -2.610290882520479e-16 -1.618033988749893 1.175570504584949
      vertex -1.521316767631104 -1.97550967487015 0.3120280828618405
    endloop
  endfacet
  facet normal 0.0 0.0 0.0
    outer loop
      vertex -7.120899969760331 -1.835935964943559 -0.7933089767718287
      vertex -8.513990895355779 -1.98621552427164 0.2344096652067315
      vertex -8.596548802172027 -1.44371832849633 -1.384079978889865
    endloop
  endfacet
  facet normal 0.0 0.0 0.0
    outer loop
      vertex 8.738726566723565e-31 2.0 -3.935572570959445e-15
      vertex -1.290253617985654 1.740149879328613 -0.9858389307958048
      vertex -1.829632461507808 1.945673131766608 0.4629860303740494
    endloop
  endfacet
  facet normal 0.0 0.0 0.0
    outer loop
      vertex -10.0 -4.898587196589e-16 2.0
      vertex -10.0 1.808077497246683e-15 -2.347328680635795e-15
      vertex -10.0 -1.563662964936063 1.246979603717461
    endloop
  endfacet
  facet normal 0.0 0.0 0.0
    outer loop
      vertex -8.562852875166369 -1.273722031583944 1.541957258246046
      vertex -10.0 -4.898587196589e-16 2.0
      vertex -10.0 -1.563662964936063 1.246979603717461
    endloop
  endfacet
  facet normal 0.0 0.0 0.0
    outer loop
      vertex -10.0 1.808077497246683e-15 -2.347328680635795e-15
      vertex -10.0 -4.898587196589e-16 2.0
      vertex -10.0 1.563662964936057 1.246979603717468
    endloop
  endfacet
  facet normal 0.0 0.0 0.0
    outer loop
      vertex -10.0 -4.898587196589e-16 2.0
      vertex -8.634764670041418 1.140280992766051 1.643094415283693
      vertex -10.0 1.563662964936057 1.246979603717468
    endloop
  endfacet
  facet normal 0.0 0.0 0.0
    outer loop
      vertex -7.120899969760331 -1.835935964943559 -0.7933089767718287
      vertex -8.596548802172027 -1.44371832849633 -1.384079978889865
      vertex -7.193524729210767 -0.6640844460752318 -1.886529047876273
    endloop
  endfacet
  facet normal 0.0 0.0 0.0
    outer loop
      vertex -2.610290882520479e-16 -1.618033988749893 1.175570504584949
      vertex -1.455111710265223 -1.268363613091511 1.546367920316975
      vertex -1.521316767631104 -1.97550967487015 0.3120280828618405
    endloop
  endfacet
  facet normal 0.0 0.0 0.0
    outer loop
      vertex 0.0 0.0 0.0
      vertex 3.592757177871931e-16 1.175570504584941 -1.618033988749898
      vertex 8.738726566723565e-31 2.0 -3.935572570959445e-15
    endloop
  endfacet
  facet normal 0.0 0.0 0.0
    outer loop
      vertex 8.738726566723565e-31 2.0 -3.935572570959445e-15
      vertex 3.592757177871931e-16 1.175570504584941 -1.618033988749898
      vertex -1.290253617985654 1.740149879328613 -0.9858389307958048
    endloop
  endfacet
  facet normal 0.0 0.0 0.0
    outer loop
      vertex -2.610290882520479e-16 -1.618033988749893 1.175570504584949
      vertex 0.0 0.0 0.0
      vertex -4.440892098501e-16 -4.898587196589e-16 2.0
    endloop
  endfacet
  facet normal 0.0 0.0 0.0
    outer loop
      vertex -2.610290882520479e-16 -1.618033988749893 1.175570504584949
      vertex -4.440892098501e-16 -4.898587196589e-16 2.0
      vertex -1.455111710265223 -1.268363613091511 1.546367920316975
    endloop
  endfacet
  facet normal 0.0 0.0 0.0
    outer loop
      vertex 8.738726566723565e-31 2.0 -3.935572570959445e-15
      vertex -1.829632461507808 1.945673131766608 0.4629860303740494
      vertex -3.140184917367108e-16 1.414213562373095 1.414213562373095
    endloop
  endfacet
  facet normal 0.0 0.0 0.0
    outer loop
      vertex -10.0 -4.898587196589e-16 2.0
      vertex -8.562852875166369 -1.273722031583944 1.541957258246046
      vertex -7.500000000000001 -4.898587196589e-16 1.999999999999998
    endloop
  endfacet
  facet normal 0.0 0.0 0.0
    outer loop
      vertex -10.0 -4.898587196589e-16 2.0
      vertex -7.500000000000001 -4.898587196589e-16 1.999999999999998
      vertex -8.634764670041418 1.140280992766051 1.643094415283693
    endloop
  endfacet
  facet normal 0.0 0.0 0.0
    outer loop
      vertex -1.521316767631104 -1.97550967487015 0.3120280828618405
      vertex -3.853262075253665 -1.790347587198855 0.8914345276077412
      vertex -2.93159169815672 -1.963870897141412 -0.3784324237707271
    endloop
  endfacet
  facet normal 0.0 0.0 0.0
    outer loop
      vertex -2.5 -4.898587196589e-16 2.0
      vertex -3.853262075253665 -1.790347587198855 0.8914345276077412
      vertex -1.455111710265223 -1.268363613091511 1.546367920316975
    endloop
  endfacet
  facet normal 0.0 0.0 0.0
    outer loop
      vertex -3.853262075253665 -1.790347587198855 0.8914345276077412
      vertex -1.521316767631104 -1.97550967487015 0.3120280828618405
      vertex -1.455111710265223 -1.268363613091511 1.546367920316975
    endloop
  endfacet
endsolid GmshModel
